<?xml version="1.0" encoding="UTF-8" standalone="no"?>
<!DOCTYPE svg PUBLIC "-//W3C//DTD SVG 1.1//EN"
 "http://www.w3.org/Graphics/SVG/1.1/DTD/svg11.dtd">
<!-- Generated by graphviz version 2.47.3 (20210619.1520)
 -->
<!-- Title: dependencies Pages: 1 -->
<svg width="10511pt" height="247pt"
 viewBox="0.00 0.00 10511.00 246.80" xmlns="http://www.w3.org/2000/svg" xmlns:xlink="http://www.w3.org/1999/xlink">
<g id="graph0" class="graph" transform="scale(1 1) rotate(0) translate(4 242.8)">
<title>dependencies</title>
<polygon fill="white" stroke="transparent" points="-4,4 -4,-242.8 10507,-242.8 10507,4 -4,4"/>
<text text-anchor="middle" x="5251.5" y="-8.2" font-family="sans-serif" font-size="14.00">dependencies</text>
<g id="clust1" class="cluster">
<title>cluster_AppModule</title>
<polygon fill="none" stroke="black" stroke-dasharray="1,5" points="8,-32.8 8,-230.8 10495,-230.8 10495,-32.8 8,-32.8"/>
</g>
<g id="clust59" class="cluster">
<title>cluster_AppModule_providers</title>
<polygon fill="none" stroke="black" points="9901,-40.8 9901,-92.8 10487,-92.8 10487,-40.8 9901,-40.8"/>
</g>
<g id="clust58" class="cluster">
<title>cluster_AppModule_bootstrap</title>
<polygon fill="none" stroke="black" points="5173,-170.8 5173,-222.8 5297,-222.8 5297,-170.8 5173,-170.8"/>
</g>
<g id="clust2" class="cluster">
<title>cluster_AppModule_declarations</title>
<polygon fill="none" stroke="black" points="293,-40.8 293,-92.8 9893,-92.8 9893,-40.8 293,-40.8"/>
</g>
<g id="clust56" class="cluster">
<title>cluster_AppModule_imports</title>
<polygon fill="none" stroke="black" points="16,-40.8 16,-92.8 285,-92.8 285,-40.8 16,-40.8"/>
</g>
<!-- AboutCandidateComponent -->
<g id="node1" class="node">
<title>AboutCandidateComponent</title>
<polygon fill="#ffffb3" stroke="black" points="9884.59,-84.8 9711.41,-84.8 9711.41,-48.8 9884.59,-48.8 9884.59,-84.8"/>
<text text-anchor="middle" x="9798" y="-62.6" font-family="Times,serif" font-size="14.00">AboutCandidateComponent</text>
</g>
<!-- AppModule -->
<g id="node54" class="node">
<title>AppModule</title>
<polygon fill="#8dd3c7" stroke="black" points="5276.66,-149.8 5273.66,-153.8 5252.66,-153.8 5249.66,-149.8 5193.34,-149.8 5193.34,-113.8 5276.66,-113.8 5276.66,-149.8"/>
<text text-anchor="middle" x="5235" y="-127.6" font-family="Times,serif" font-size="14.00">AppModule</text>
</g>
<!-- AboutCandidateComponent&#45;&gt;AppModule -->
<g id="edge1" class="edge">
<title>AboutCandidateComponent&#45;&gt;AppModule</title>
<path fill="none" stroke="black" d="M9798,-85.12C9798,-108.46 9798,-145.8 9798,-145.8 9798,-145.8 5286.9,-145.8 5286.9,-145.8"/>
<polygon fill="black" stroke="black" points="5286.9,-142.3 5276.9,-145.8 5286.9,-149.3 5286.9,-142.3"/>
</g>
<!-- AboutJobComponent -->
<g id="node2" class="node">
<title>AboutJobComponent</title>
<polygon fill="#ffffb3" stroke="black" points="9693.77,-84.8 9558.23,-84.8 9558.23,-48.8 9693.77,-48.8 9693.77,-84.8"/>
<text text-anchor="middle" x="9626" y="-62.6" font-family="Times,serif" font-size="14.00">AboutJobComponent</text>
</g>
<!-- AboutJobComponent&#45;&gt;AppModule -->
<g id="edge2" class="edge">
<title>AboutJobComponent&#45;&gt;AppModule</title>
<path fill="none" stroke="black" d="M9626,-85.05C9626,-107.82 9626,-143.8 9626,-143.8 9626,-143.8 5286.7,-143.8 5286.7,-143.8"/>
<polygon fill="black" stroke="black" points="5286.7,-140.3 5276.7,-143.8 5286.7,-147.3 5286.7,-140.3"/>
</g>
<!-- AddExperienceComponent -->
<g id="node3" class="node">
<title>AddExperienceComponent</title>
<polygon fill="#ffffb3" stroke="black" points="9540.4,-84.8 9371.6,-84.8 9371.6,-48.8 9540.4,-48.8 9540.4,-84.8"/>
<text text-anchor="middle" x="9456" y="-62.6" font-family="Times,serif" font-size="14.00">AddExperienceComponent</text>
</g>
<!-- AddExperienceComponent&#45;&gt;AppModule -->
<g id="edge3" class="edge">
<title>AddExperienceComponent&#45;&gt;AppModule</title>
<path fill="none" stroke="black" d="M9456,-84.81C9456,-107.29 9456,-142.8 9456,-142.8 9456,-142.8 5286.78,-142.8 5286.78,-142.8"/>
<polygon fill="black" stroke="black" points="5286.78,-139.3 5276.78,-142.8 5286.78,-146.3 5286.78,-139.3"/>
</g>
<!-- AllJobsComponent -->
<g id="node4" class="node">
<title>AllJobsComponent</title>
<polygon fill="#ffffb3" stroke="black" points="9354.11,-84.8 9229.89,-84.8 9229.89,-48.8 9354.11,-48.8 9354.11,-84.8"/>
<text text-anchor="middle" x="9292" y="-62.6" font-family="Times,serif" font-size="14.00">AllJobsComponent</text>
</g>
<!-- AllJobsComponent&#45;&gt;AppModule -->
<g id="edge4" class="edge">
<title>AllJobsComponent&#45;&gt;AppModule</title>
<path fill="none" stroke="black" d="M9292,-84.96C9292,-107.15 9292,-141.8 9292,-141.8 9292,-141.8 5286.81,-141.8 5286.81,-141.8"/>
<polygon fill="black" stroke="black" points="5286.81,-138.3 5276.81,-141.8 5286.81,-145.3 5286.81,-138.3"/>
</g>
<!-- AppComponent -->
<g id="node5" class="node">
<title>AppComponent</title>
<polygon fill="#ffffb3" stroke="black" points="9211.94,-84.8 9106.06,-84.8 9106.06,-48.8 9211.94,-48.8 9211.94,-84.8"/>
<text text-anchor="middle" x="9159" y="-62.6" font-family="Times,serif" font-size="14.00">AppComponent</text>
</g>
<!-- AppComponent&#45;&gt;AppModule -->
<g id="edge5" class="edge">
<title>AppComponent&#45;&gt;AppModule</title>
<path fill="none" stroke="black" d="M9159,-85.09C9159,-107.01 9159,-140.8 9159,-140.8 9159,-140.8 5286.74,-140.8 5286.74,-140.8"/>
<polygon fill="black" stroke="black" points="5286.74,-137.3 5276.74,-140.8 5286.74,-144.3 5286.74,-137.3"/>
</g>
<!-- CompanyListComponent -->
<g id="node6" class="node">
<title>CompanyListComponent</title>
<polygon fill="#ffffb3" stroke="black" points="9088.55,-84.8 8931.45,-84.8 8931.45,-48.8 9088.55,-48.8 9088.55,-84.8"/>
<text text-anchor="middle" x="9010" y="-62.6" font-family="Times,serif" font-size="14.00">CompanyListComponent</text>
</g>
<!-- CompanyListComponent&#45;&gt;AppModule -->
<g id="edge6" class="edge">
<title>CompanyListComponent&#45;&gt;AppModule</title>
<path fill="none" stroke="black" d="M9010,-84.97C9010,-106.3 9010,-138.8 9010,-138.8 9010,-138.8 5286.75,-138.8 5286.75,-138.8"/>
<polygon fill="black" stroke="black" points="5286.75,-135.3 5276.75,-138.8 5286.75,-142.3 5286.75,-135.3"/>
</g>
<!-- CompanyMenuComponent -->
<g id="node7" class="node">
<title>CompanyMenuComponent</title>
<polygon fill="#ffffb3" stroke="black" points="8913.43,-84.8 8744.57,-84.8 8744.57,-48.8 8913.43,-48.8 8913.43,-84.8"/>
<text text-anchor="middle" x="8829" y="-62.6" font-family="Times,serif" font-size="14.00">CompanyMenuComponent</text>
</g>
<!-- CompanyMenuComponent&#45;&gt;AppModule -->
<g id="edge7" class="edge">
<title>CompanyMenuComponent&#45;&gt;AppModule</title>
<path fill="none" stroke="black" d="M8829,-85.08C8829,-106.12 8829,-137.8 8829,-137.8 8829,-137.8 5286.92,-137.8 5286.92,-137.8"/>
<polygon fill="black" stroke="black" points="5286.92,-134.3 5276.92,-137.8 5286.92,-141.3 5286.92,-134.3"/>
</g>
<!-- ConfirmDialogComponent -->
<g id="node8" class="node">
<title>ConfirmDialogComponent</title>
<polygon fill="#ffffb3" stroke="black" points="8726.37,-84.8 8559.63,-84.8 8559.63,-48.8 8726.37,-48.8 8726.37,-84.8"/>
<text text-anchor="middle" x="8643" y="-62.6" font-family="Times,serif" font-size="14.00">ConfirmDialogComponent</text>
</g>
<!-- ConfirmDialogComponent&#45;&gt;AppModule -->
<g id="edge8" class="edge">
<title>ConfirmDialogComponent&#45;&gt;AppModule</title>
<path fill="none" stroke="black" d="M8643,-84.83C8643,-105.57 8643,-136.8 8643,-136.8 8643,-136.8 5286.86,-136.8 5286.86,-136.8"/>
<polygon fill="black" stroke="black" points="5286.86,-133.3 5276.86,-136.8 5286.86,-140.3 5286.86,-133.3"/>
</g>
<!-- ContactComponent -->
<g id="node9" class="node">
<title>ContactComponent</title>
<polygon fill="#ffffb3" stroke="black" points="8541.38,-84.8 8416.62,-84.8 8416.62,-48.8 8541.38,-48.8 8541.38,-84.8"/>
<text text-anchor="middle" x="8479" y="-62.6" font-family="Times,serif" font-size="14.00">ContactComponent</text>
</g>
<!-- ContactComponent&#45;&gt;AppModule -->
<g id="edge9" class="edge">
<title>ContactComponent&#45;&gt;AppModule</title>
<path fill="none" stroke="black" d="M8479,-84.93C8479,-105.37 8479,-135.8 8479,-135.8 8479,-135.8 5286.9,-135.8 5286.9,-135.8"/>
<polygon fill="black" stroke="black" points="5286.9,-132.3 5276.9,-135.8 5286.9,-139.3 5286.9,-132.3"/>
</g>
<!-- CreateCompanyComponent -->
<g id="node10" class="node">
<title>CreateCompanyComponent</title>
<polygon fill="#ffffb3" stroke="black" points="8398.31,-84.8 8225.69,-84.8 8225.69,-48.8 8398.31,-48.8 8398.31,-84.8"/>
<text text-anchor="middle" x="8312" y="-62.6" font-family="Times,serif" font-size="14.00">CreateCompanyComponent</text>
</g>
<!-- CreateCompanyComponent&#45;&gt;AppModule -->
<g id="edge10" class="edge">
<title>CreateCompanyComponent&#45;&gt;AppModule</title>
<path fill="none" stroke="black" d="M8312,-85.11C8312,-104.95 8312,-133.8 8312,-133.8 8312,-133.8 5286.75,-133.8 5286.75,-133.8"/>
<polygon fill="black" stroke="black" points="5286.75,-130.3 5276.75,-133.8 5286.75,-137.3 5286.75,-130.3"/>
</g>
<!-- CreateNewEmailComponent -->
<g id="node11" class="node">
<title>CreateNewEmailComponent</title>
<polygon fill="#ffffb3" stroke="black" points="8207.73,-84.8 8030.27,-84.8 8030.27,-48.8 8207.73,-48.8 8207.73,-84.8"/>
<text text-anchor="middle" x="8119" y="-62.6" font-family="Times,serif" font-size="14.00">CreateNewEmailComponent</text>
</g>
<!-- CreateNewEmailComponent&#45;&gt;AppModule -->
<g id="edge11" class="edge">
<title>CreateNewEmailComponent&#45;&gt;AppModule</title>
<path fill="none" stroke="black" d="M8119,-84.83C8119,-104.38 8119,-132.8 8119,-132.8 8119,-132.8 5286.88,-132.8 5286.88,-132.8"/>
<polygon fill="black" stroke="black" points="5286.88,-129.3 5276.88,-132.8 5286.88,-136.3 5286.88,-129.3"/>
</g>
<!-- CreateNewPhoneComponent -->
<g id="node12" class="node">
<title>CreateNewPhoneComponent</title>
<polygon fill="#ffffb3" stroke="black" points="8011.79,-84.8 7832.21,-84.8 7832.21,-48.8 8011.79,-48.8 8011.79,-84.8"/>
<text text-anchor="middle" x="7922" y="-62.6" font-family="Times,serif" font-size="14.00">CreateNewPhoneComponent</text>
</g>
<!-- CreateNewPhoneComponent&#45;&gt;AppModule -->
<g id="edge12" class="edge">
<title>CreateNewPhoneComponent&#45;&gt;AppModule</title>
<path fill="none" stroke="black" d="M7922,-84.91C7922,-104.14 7922,-131.8 7922,-131.8 7922,-131.8 5286.67,-131.8 5286.67,-131.8"/>
<polygon fill="black" stroke="black" points="5286.67,-128.3 5276.67,-131.8 5286.67,-135.3 5286.67,-128.3"/>
</g>
<!-- CreatePreferredJobLocationComponent -->
<g id="node13" class="node">
<title>CreatePreferredJobLocationComponent</title>
<polygon fill="#ffffb3" stroke="black" points="7814.64,-84.8 7575.36,-84.8 7575.36,-48.8 7814.64,-48.8 7814.64,-84.8"/>
<text text-anchor="middle" x="7695" y="-62.6" font-family="Times,serif" font-size="14.00">CreatePreferredJobLocationComponent</text>
</g>
<!-- CreatePreferredJobLocationComponent&#45;&gt;AppModule -->
<g id="edge13" class="edge">
<title>CreatePreferredJobLocationComponent&#45;&gt;AppModule</title>
<path fill="none" stroke="black" d="M7695,-84.97C7695,-103.89 7695,-130.8 7695,-130.8 7695,-130.8 5286.67,-130.8 5286.67,-130.8"/>
<polygon fill="black" stroke="black" points="5286.67,-127.3 5276.67,-130.8 5286.67,-134.3 5286.67,-127.3"/>
</g>
<!-- CustomerListComponent -->
<g id="node14" class="node">
<title>CustomerListComponent</title>
<polygon fill="#ffffb3" stroke="black" points="7557.55,-84.8 7400.45,-84.8 7400.45,-48.8 7557.55,-48.8 7557.55,-84.8"/>
<text text-anchor="middle" x="7479" y="-62.6" font-family="Times,serif" font-size="14.00">CustomerListComponent</text>
</g>
<!-- CustomerListComponent&#45;&gt;AppModule -->
<g id="edge14" class="edge">
<title>CustomerListComponent&#45;&gt;AppModule</title>
<path fill="none" stroke="black" d="M7479,-85.07C7479,-103.36 7479,-128.8 7479,-128.8 7479,-128.8 5286.84,-128.8 5286.84,-128.8"/>
<polygon fill="black" stroke="black" points="5286.84,-125.3 5276.84,-128.8 5286.84,-132.3 5286.84,-125.3"/>
</g>
<!-- EditExperienceComponent -->
<g id="node15" class="node">
<title>EditExperienceComponent</title>
<polygon fill="#ffffb3" stroke="black" points="7381.63,-84.8 7214.37,-84.8 7214.37,-48.8 7381.63,-48.8 7381.63,-84.8"/>
<text text-anchor="middle" x="7298" y="-62.6" font-family="Times,serif" font-size="14.00">EditExperienceComponent</text>
</g>
<!-- EditExperienceComponent&#45;&gt;AppModule -->
<g id="edge15" class="edge">
<title>EditExperienceComponent&#45;&gt;AppModule</title>
<path fill="none" stroke="black" d="M7298,-85.1C7298,-103.07 7298,-127.8 7298,-127.8 7298,-127.8 5286.68,-127.8 5286.68,-127.8"/>
<polygon fill="black" stroke="black" points="5286.68,-124.3 5276.68,-127.8 5286.68,-131.3 5286.68,-124.3"/>
</g>
<!-- EmployeeAccountComponent -->
<g id="node16" class="node">
<title>EmployeeAccountComponent</title>
<polygon fill="#ffffb3" stroke="black" points="7195.52,-84.8 7010.48,-84.8 7010.48,-48.8 7195.52,-48.8 7195.52,-84.8"/>
<text text-anchor="middle" x="7103" y="-62.6" font-family="Times,serif" font-size="14.00">EmployeeAccountComponent</text>
</g>
<!-- EmployeeAccountComponent&#45;&gt;AppModule -->
<g id="edge16" class="edge">
<title>EmployeeAccountComponent&#45;&gt;AppModule</title>
<path fill="none" stroke="black" d="M7103,-84.8C7103,-102.48 7103,-126.8 7103,-126.8 7103,-126.8 5287.08,-126.8 5287.08,-126.8"/>
<polygon fill="black" stroke="black" points="5287.08,-123.3 5277.08,-126.8 5287.08,-130.3 5287.08,-123.3"/>
</g>
<!-- EmployerAccountComponent -->
<g id="node17" class="node">
<title>EmployerAccountComponent</title>
<polygon fill="#ffffb3" stroke="black" points="6991.97,-84.8 6808.03,-84.8 6808.03,-48.8 6991.97,-48.8 6991.97,-84.8"/>
<text text-anchor="middle" x="6900" y="-62.6" font-family="Times,serif" font-size="14.00">EmployerAccountComponent</text>
</g>
<!-- EmployerAccountComponent&#45;&gt;AppModule -->
<g id="edge17" class="edge">
<title>EmployerAccountComponent&#45;&gt;AppModule</title>
<path fill="none" stroke="black" d="M6900,-84.82C6900,-102.17 6900,-125.8 6900,-125.8 6900,-125.8 5286.99,-125.8 5286.99,-125.8"/>
<polygon fill="black" stroke="black" points="5286.99,-122.3 5276.99,-125.8 5286.99,-129.3 5286.99,-122.3"/>
</g>
<!-- EmployerQuestionsComponent -->
<g id="node18" class="node">
<title>EmployerQuestionsComponent</title>
<polygon fill="#ffffb3" stroke="black" points="6790.03,-84.8 6597.97,-84.8 6597.97,-48.8 6790.03,-48.8 6790.03,-84.8"/>
<text text-anchor="middle" x="6694" y="-62.6" font-family="Times,serif" font-size="14.00">EmployerQuestionsComponent</text>
</g>
<!-- EmployerQuestionsComponent&#45;&gt;AppModule -->
<g id="edge18" class="edge">
<title>EmployerQuestionsComponent&#45;&gt;AppModule</title>
<path fill="none" stroke="black" d="M6694,-84.84C6694,-101.53 6694,-123.8 6694,-123.8 6694,-123.8 5286.7,-123.8 5286.7,-123.8"/>
<polygon fill="black" stroke="black" points="5286.7,-120.3 5276.7,-123.8 5286.7,-127.3 5286.7,-120.3"/>
</g>
<!-- ErrordialogComponent -->
<g id="node19" class="node">
<title>ErrordialogComponent</title>
<polygon fill="#ffffb3" stroke="black" points="6579.86,-84.8 6434.14,-84.8 6434.14,-48.8 6579.86,-48.8 6579.86,-84.8"/>
<text text-anchor="middle" x="6507" y="-62.6" font-family="Times,serif" font-size="14.00">ErrordialogComponent</text>
</g>
<!-- ErrordialogComponent&#45;&gt;AppModule -->
<g id="edge19" class="edge">
<title>ErrordialogComponent&#45;&gt;AppModule</title>
<path fill="none" stroke="black" d="M6507,-84.83C6507,-101.2 6507,-122.8 6507,-122.8 6507,-122.8 5286.96,-122.8 5286.96,-122.8"/>
<polygon fill="black" stroke="black" points="5286.96,-119.3 5276.96,-122.8 5286.96,-126.3 5286.96,-119.3"/>
</g>
<!-- ExistingReferralComponent -->
<g id="node20" class="node">
<title>ExistingReferralComponent</title>
<polygon fill="#ffffb3" stroke="black" points="6415.85,-84.8 6242.15,-84.8 6242.15,-48.8 6415.85,-48.8 6415.85,-84.8"/>
<text text-anchor="middle" x="6329" y="-62.6" font-family="Times,serif" font-size="14.00">ExistingReferralComponent</text>
</g>
<!-- ExistingReferralComponent&#45;&gt;AppModule -->
<g id="edge20" class="edge">
<title>ExistingReferralComponent&#45;&gt;AppModule</title>
<path fill="none" stroke="black" d="M6329,-84.81C6329,-100.85 6329,-121.8 6329,-121.8 6329,-121.8 5286.88,-121.8 5286.88,-121.8"/>
<polygon fill="black" stroke="black" points="5286.88,-118.3 5276.88,-121.8 5286.88,-125.3 5286.88,-118.3"/>
</g>
<!-- FooterComponent -->
<g id="node21" class="node">
<title>FooterComponent</title>
<polygon fill="#ffffb3" stroke="black" points="6223.88,-84.8 6106.12,-84.8 6106.12,-48.8 6223.88,-48.8 6223.88,-84.8"/>
<text text-anchor="middle" x="6165" y="-62.6" font-family="Times,serif" font-size="14.00">FooterComponent</text>
</g>
<!-- FooterComponent&#45;&gt;AppModule -->
<g id="edge21" class="edge">
<title>FooterComponent&#45;&gt;AppModule</title>
<path fill="none" stroke="black" d="M6165,-85.08C6165,-100.75 6165,-120.8 6165,-120.8 6165,-120.8 5286.77,-120.8 5286.77,-120.8"/>
<polygon fill="black" stroke="black" points="5286.77,-117.3 5276.77,-120.8 5286.77,-124.3 5286.77,-117.3"/>
</g>
<!-- ForgetpasswordComponent -->
<g id="node22" class="node">
<title>ForgetpasswordComponent</title>
<polygon fill="#ffffb3" stroke="black" points="6088.25,-84.8 5917.75,-84.8 5917.75,-48.8 6088.25,-48.8 6088.25,-84.8"/>
<text text-anchor="middle" x="6003" y="-62.6" font-family="Times,serif" font-size="14.00">ForgetpasswordComponent</text>
</g>
<!-- ForgetpasswordComponent&#45;&gt;AppModule -->
<g id="edge22" class="edge">
<title>ForgetpasswordComponent&#45;&gt;AppModule</title>
<path fill="none" stroke="black" d="M6003,-84.99C6003,-99.98 6003,-118.8 6003,-118.8 6003,-118.8 5286.84,-118.8 5286.84,-118.8"/>
<polygon fill="black" stroke="black" points="5286.84,-115.3 5276.84,-118.8 5286.84,-122.3 5286.84,-115.3"/>
</g>
<!-- HeaderComponent -->
<g id="node23" class="node">
<title>HeaderComponent</title>
<polygon fill="#ffffb3" stroke="black" points="5899.74,-84.8 5778.26,-84.8 5778.26,-48.8 5899.74,-48.8 5899.74,-84.8"/>
<text text-anchor="middle" x="5839" y="-62.6" font-family="Times,serif" font-size="14.00">HeaderComponent</text>
</g>
<!-- HeaderComponent&#45;&gt;AppModule -->
<g id="edge23" class="edge">
<title>HeaderComponent&#45;&gt;AppModule</title>
<path fill="none" stroke="black" d="M5839,-84.92C5839,-99.58 5839,-117.8 5839,-117.8 5839,-117.8 5286.99,-117.8 5286.99,-117.8"/>
<polygon fill="black" stroke="black" points="5286.99,-114.3 5276.99,-117.8 5286.99,-121.3 5286.99,-114.3"/>
</g>
<!-- HomePageComponent -->
<g id="node24" class="node">
<title>HomePageComponent</title>
<polygon fill="#ffffb3" stroke="black" points="5760.26,-84.8 5617.74,-84.8 5617.74,-48.8 5760.26,-48.8 5760.26,-84.8"/>
<text text-anchor="middle" x="5689" y="-62.6" font-family="Times,serif" font-size="14.00">HomePageComponent</text>
</g>
<!-- HomePageComponent&#45;&gt;AppModule -->
<g id="edge24" class="edge">
<title>HomePageComponent&#45;&gt;AppModule</title>
<path fill="none" stroke="black" d="M5689,-84.85C5689,-99.17 5689,-116.8 5689,-116.8 5689,-116.8 5286.9,-116.8 5286.9,-116.8"/>
<polygon fill="black" stroke="black" points="5286.9,-113.3 5276.9,-116.8 5286.9,-120.3 5286.9,-113.3"/>
</g>
<!-- InterviewScheduleComponent -->
<g id="node25" class="node">
<title>InterviewScheduleComponent</title>
<polygon fill="#ffffb3" stroke="black" points="5599.29,-84.8 5412.71,-84.8 5412.71,-48.8 5599.29,-48.8 5599.29,-84.8"/>
<text text-anchor="middle" x="5506" y="-62.6" font-family="Times,serif" font-size="14.00">InterviewScheduleComponent</text>
</g>
<!-- InterviewScheduleComponent&#45;&gt;AppModule -->
<g id="edge25" class="edge">
<title>InterviewScheduleComponent&#45;&gt;AppModule</title>
<path fill="none" stroke="black" d="M5506,-85.05C5506,-98.98 5506,-115.8 5506,-115.8 5506,-115.8 5286.75,-115.8 5286.75,-115.8"/>
<polygon fill="black" stroke="black" points="5286.75,-112.3 5276.75,-115.8 5286.75,-119.3 5286.75,-112.3"/>
</g>
<!-- IntroVideoComponent -->
<g id="node26" class="node">
<title>IntroVideoComponent</title>
<polygon fill="#ffffb3" stroke="black" points="5394.26,-84.8 5251.74,-84.8 5251.74,-48.8 5394.26,-48.8 5394.26,-84.8"/>
<text text-anchor="middle" x="5323" y="-62.6" font-family="Times,serif" font-size="14.00">IntroVideoComponent</text>
</g>
<!-- IntroVideoComponent&#45;&gt;AppModule -->
<g id="edge26" class="edge">
<title>IntroVideoComponent&#45;&gt;AppModule</title>
<path fill="none" stroke="black" d="M5264.23,-84.91C5264.23,-84.91 5264.23,-103.79 5264.23,-103.79"/>
<polygon fill="black" stroke="black" points="5260.73,-103.79 5264.23,-113.79 5267.73,-103.79 5260.73,-103.79"/>
</g>
<!-- JobsInterestedInComponent -->
<g id="node27" class="node">
<title>JobsInterestedInComponent</title>
<polygon fill="#ffffb3" stroke="black" points="5233.57,-84.8 5060.43,-84.8 5060.43,-48.8 5233.57,-48.8 5233.57,-84.8"/>
<text text-anchor="middle" x="5147" y="-62.6" font-family="Times,serif" font-size="14.00">JobsInterestedInComponent</text>
</g>
<!-- JobsInterestedInComponent&#45;&gt;AppModule -->
<g id="edge27" class="edge">
<title>JobsInterestedInComponent&#45;&gt;AppModule</title>
<path fill="none" stroke="black" d="M5213.35,-84.91C5213.35,-84.91 5213.35,-103.79 5213.35,-103.79"/>
<polygon fill="black" stroke="black" points="5209.85,-103.79 5213.35,-113.79 5216.85,-103.79 5209.85,-103.79"/>
</g>
<!-- KeyPointsComponent -->
<g id="node28" class="node">
<title>KeyPointsComponent</title>
<polygon fill="#ffffb3" stroke="black" points="5042.66,-84.8 4903.34,-84.8 4903.34,-48.8 5042.66,-48.8 5042.66,-84.8"/>
<text text-anchor="middle" x="4973" y="-62.6" font-family="Times,serif" font-size="14.00">KeyPointsComponent</text>
</g>
<!-- KeyPointsComponent&#45;&gt;AppModule -->
<g id="edge28" class="edge">
<title>KeyPointsComponent&#45;&gt;AppModule</title>
<path fill="none" stroke="black" d="M4973,-85.05C4973,-98.98 4973,-115.8 4973,-115.8 4973,-115.8 5183.2,-115.8 5183.2,-115.8"/>
<polygon fill="black" stroke="black" points="5183.2,-119.3 5193.2,-115.8 5183.2,-112.3 5183.2,-119.3"/>
</g>
<!-- LoginComponent -->
<g id="node29" class="node">
<title>LoginComponent</title>
<polygon fill="#ffffb3" stroke="black" points="4885.28,-84.8 4770.72,-84.8 4770.72,-48.8 4885.28,-48.8 4885.28,-84.8"/>
<text text-anchor="middle" x="4828" y="-62.6" font-family="Times,serif" font-size="14.00">LoginComponent</text>
</g>
<!-- LoginComponent&#45;&gt;AppModule -->
<g id="edge29" class="edge">
<title>LoginComponent&#45;&gt;AppModule</title>
<path fill="none" stroke="black" d="M4828,-84.85C4828,-99.17 4828,-116.8 4828,-116.8 4828,-116.8 5182.98,-116.8 5182.98,-116.8"/>
<polygon fill="black" stroke="black" points="5182.98,-120.3 5192.98,-116.8 5182.98,-113.3 5182.98,-120.3"/>
</g>
<!-- NavbarComponent -->
<g id="node30" class="node">
<title>NavbarComponent</title>
<polygon fill="#ffffb3" stroke="black" points="4752.03,-84.8 4629.97,-84.8 4629.97,-48.8 4752.03,-48.8 4752.03,-84.8"/>
<text text-anchor="middle" x="4691" y="-62.6" font-family="Times,serif" font-size="14.00">NavbarComponent</text>
</g>
<!-- NavbarComponent&#45;&gt;AppModule -->
<g id="edge30" class="edge">
<title>NavbarComponent&#45;&gt;AppModule</title>
<path fill="none" stroke="black" d="M4691,-84.92C4691,-99.58 4691,-117.8 4691,-117.8 4691,-117.8 5183.22,-117.8 5183.22,-117.8"/>
<polygon fill="black" stroke="black" points="5183.22,-121.3 5193.22,-117.8 5183.22,-114.3 5183.22,-121.3"/>
</g>
<!-- PendingReferralRequestComponent -->
<g id="node31" class="node">
<title>PendingReferralRequestComponent</title>
<polygon fill="#ffffb3" stroke="black" points="4612.17,-84.8 4393.83,-84.8 4393.83,-48.8 4612.17,-48.8 4612.17,-84.8"/>
<text text-anchor="middle" x="4503" y="-62.6" font-family="Times,serif" font-size="14.00">PendingReferralRequestComponent</text>
</g>
<!-- PendingReferralRequestComponent&#45;&gt;AppModule -->
<g id="edge31" class="edge">
<title>PendingReferralRequestComponent&#45;&gt;AppModule</title>
<path fill="none" stroke="black" d="M4503,-84.99C4503,-99.98 4503,-118.8 4503,-118.8 4503,-118.8 5183.28,-118.8 5183.28,-118.8"/>
<polygon fill="black" stroke="black" points="5183.28,-122.3 5193.28,-118.8 5183.28,-115.3 5183.28,-122.3"/>
</g>
<!-- PostJobComponent -->
<g id="node32" class="node">
<title>PostJobComponent</title>
<polygon fill="#ffffb3" stroke="black" points="4375.39,-84.8 4250.61,-84.8 4250.61,-48.8 4375.39,-48.8 4375.39,-84.8"/>
<text text-anchor="middle" x="4313" y="-62.6" font-family="Times,serif" font-size="14.00">PostJobComponent</text>
</g>
<!-- PostJobComponent&#45;&gt;AppModule -->
<g id="edge32" class="edge">
<title>PostJobComponent&#45;&gt;AppModule</title>
<path fill="none" stroke="black" d="M4313,-85.08C4313,-100.75 4313,-120.8 4313,-120.8 4313,-120.8 5183.29,-120.8 5183.29,-120.8"/>
<polygon fill="black" stroke="black" points="5183.29,-124.3 5193.29,-120.8 5183.29,-117.3 5183.29,-124.3"/>
</g>
<!-- PreferredJobLocationComponent -->
<g id="node33" class="node">
<title>PreferredJobLocationComponent</title>
<polygon fill="#ffffb3" stroke="black" points="4232.11,-84.8 4029.89,-84.8 4029.89,-48.8 4232.11,-48.8 4232.11,-84.8"/>
<text text-anchor="middle" x="4131" y="-62.6" font-family="Times,serif" font-size="14.00">PreferredJobLocationComponent</text>
</g>
<!-- PreferredJobLocationComponent&#45;&gt;AppModule -->
<g id="edge33" class="edge">
<title>PreferredJobLocationComponent&#45;&gt;AppModule</title>
<path fill="none" stroke="black" d="M4131,-84.81C4131,-100.85 4131,-121.8 4131,-121.8 4131,-121.8 5183.07,-121.8 5183.07,-121.8"/>
<polygon fill="black" stroke="black" points="5183.07,-125.3 5193.07,-121.8 5183.07,-118.3 5183.07,-125.3"/>
</g>
<!-- RefereeAccountComponent -->
<g id="node34" class="node">
<title>RefereeAccountComponent</title>
<polygon fill="#ffffb3" stroke="black" points="4012.28,-84.8 3839.72,-84.8 3839.72,-48.8 4012.28,-48.8 4012.28,-84.8"/>
<text text-anchor="middle" x="3926" y="-62.6" font-family="Times,serif" font-size="14.00">RefereeAccountComponent</text>
</g>
<!-- RefereeAccountComponent&#45;&gt;AppModule -->
<g id="edge34" class="edge">
<title>RefereeAccountComponent&#45;&gt;AppModule</title>
<path fill="none" stroke="black" d="M3926,-84.83C3926,-101.2 3926,-122.8 3926,-122.8 3926,-122.8 5183.3,-122.8 5183.3,-122.8"/>
<polygon fill="black" stroke="black" points="5183.3,-126.3 5193.3,-122.8 5183.3,-119.3 5183.3,-126.3"/>
</g>
<!-- RefereeScoreComponent -->
<g id="node35" class="node">
<title>RefereeScoreComponent</title>
<polygon fill="#ffffb3" stroke="black" points="3822.22,-84.8 3665.78,-84.8 3665.78,-48.8 3822.22,-48.8 3822.22,-84.8"/>
<text text-anchor="middle" x="3744" y="-62.6" font-family="Times,serif" font-size="14.00">RefereeScoreComponent</text>
</g>
<!-- RefereeScoreComponent&#45;&gt;AppModule -->
<g id="edge35" class="edge">
<title>RefereeScoreComponent&#45;&gt;AppModule</title>
<path fill="none" stroke="black" d="M3744,-84.84C3744,-101.53 3744,-123.8 3744,-123.8 3744,-123.8 5183.17,-123.8 5183.17,-123.8"/>
<polygon fill="black" stroke="black" points="5183.17,-127.3 5193.17,-123.8 5183.17,-120.3 5183.17,-127.3"/>
</g>
<!-- ReferralBonusComponent -->
<g id="node36" class="node">
<title>ReferralBonusComponent</title>
<polygon fill="#ffffb3" stroke="black" points="3647.47,-84.8 3484.53,-84.8 3484.53,-48.8 3647.47,-48.8 3647.47,-84.8"/>
<text text-anchor="middle" x="3566" y="-62.6" font-family="Times,serif" font-size="14.00">ReferralBonusComponent</text>
</g>
<!-- ReferralBonusComponent&#45;&gt;AppModule -->
<g id="edge36" class="edge">
<title>ReferralBonusComponent&#45;&gt;AppModule</title>
<path fill="none" stroke="black" d="M3566,-84.82C3566,-102.17 3566,-125.8 3566,-125.8 3566,-125.8 5183.33,-125.8 5183.33,-125.8"/>
<polygon fill="black" stroke="black" points="5183.33,-129.3 5193.33,-125.8 5183.33,-122.3 5183.33,-129.3"/>
</g>
<!-- ReferralReviewPageComponent -->
<g id="node37" class="node">
<title>ReferralReviewPageComponent</title>
<polygon fill="#ffffb3" stroke="black" points="3466.66,-84.8 3269.34,-84.8 3269.34,-48.8 3466.66,-48.8 3466.66,-84.8"/>
<text text-anchor="middle" x="3368" y="-62.6" font-family="Times,serif" font-size="14.00">ReferralReviewPageComponent</text>
</g>
<!-- ReferralReviewPageComponent&#45;&gt;AppModule -->
<g id="edge37" class="edge">
<title>ReferralReviewPageComponent&#45;&gt;AppModule</title>
<path fill="none" stroke="black" d="M3368,-84.8C3368,-102.48 3368,-126.8 3368,-126.8 3368,-126.8 5182.94,-126.8 5182.94,-126.8"/>
<polygon fill="black" stroke="black" points="5182.94,-130.3 5192.94,-126.8 5182.94,-123.3 5182.94,-130.3"/>
</g>
<!-- ReferralReviewRequestComponent -->
<g id="node38" class="node">
<title>ReferralReviewRequestComponent</title>
<polygon fill="#ffffb3" stroke="black" points="3251.55,-84.8 3036.45,-84.8 3036.45,-48.8 3251.55,-48.8 3251.55,-84.8"/>
<text text-anchor="middle" x="3144" y="-62.6" font-family="Times,serif" font-size="14.00">ReferralReviewRequestComponent</text>
</g>
<!-- ReferralReviewRequestComponent&#45;&gt;AppModule -->
<g id="edge38" class="edge">
<title>ReferralReviewRequestComponent&#45;&gt;AppModule</title>
<path fill="none" stroke="black" d="M3144,-85.1C3144,-103.07 3144,-127.8 3144,-127.8 3144,-127.8 5183.23,-127.8 5183.23,-127.8"/>
<polygon fill="black" stroke="black" points="5183.23,-131.3 5193.23,-127.8 5183.23,-124.3 5183.23,-131.3"/>
</g>
<!-- SavedJobsComponent -->
<g id="node39" class="node">
<title>SavedJobsComponent</title>
<polygon fill="#ffffb3" stroke="black" points="3018.43,-84.8 2877.57,-84.8 2877.57,-48.8 3018.43,-48.8 3018.43,-84.8"/>
<text text-anchor="middle" x="2948" y="-62.6" font-family="Times,serif" font-size="14.00">SavedJobsComponent</text>
</g>
<!-- SavedJobsComponent&#45;&gt;AppModule -->
<g id="edge39" class="edge">
<title>SavedJobsComponent&#45;&gt;AppModule</title>
<path fill="none" stroke="black" d="M2948,-85.07C2948,-103.36 2948,-128.8 2948,-128.8 2948,-128.8 5182.86,-128.8 5182.86,-128.8"/>
<polygon fill="black" stroke="black" points="5182.86,-132.3 5192.86,-128.8 5182.86,-125.3 5182.86,-132.3"/>
</g>
<!-- SearchAgentComponent -->
<g id="node40" class="node">
<title>SearchAgentComponent</title>
<polygon fill="#ffffb3" stroke="black" points="2859.63,-84.8 2706.37,-84.8 2706.37,-48.8 2859.63,-48.8 2859.63,-84.8"/>
<text text-anchor="middle" x="2783" y="-62.6" font-family="Times,serif" font-size="14.00">SearchAgentComponent</text>
</g>
<!-- SearchAgentComponent&#45;&gt;AppModule -->
<g id="edge40" class="edge">
<title>SearchAgentComponent&#45;&gt;AppModule</title>
<path fill="none" stroke="black" d="M2783,-84.97C2783,-103.89 2783,-130.8 2783,-130.8 2783,-130.8 5183.21,-130.8 5183.21,-130.8"/>
<polygon fill="black" stroke="black" points="5183.21,-134.3 5193.21,-130.8 5183.21,-127.3 5183.21,-134.3"/>
</g>
<!-- SignupComponent -->
<g id="node41" class="node">
<title>SignupComponent</title>
<polygon fill="#ffffb3" stroke="black" points="2688.51,-84.8 2567.49,-84.8 2567.49,-48.8 2688.51,-48.8 2688.51,-84.8"/>
<text text-anchor="middle" x="2628" y="-62.6" font-family="Times,serif" font-size="14.00">SignupComponent</text>
</g>
<!-- SignupComponent&#45;&gt;AppModule -->
<g id="edge41" class="edge">
<title>SignupComponent&#45;&gt;AppModule</title>
<path fill="none" stroke="black" d="M2628,-84.91C2628,-104.14 2628,-131.8 2628,-131.8 2628,-131.8 5183.26,-131.8 5183.26,-131.8"/>
<polygon fill="black" stroke="black" points="5183.26,-135.3 5193.26,-131.8 5183.26,-128.3 5183.26,-135.3"/>
</g>
<!-- SignupLandingComponent -->
<g id="node42" class="node">
<title>SignupLandingComponent</title>
<polygon fill="#ffffb3" stroke="black" points="2549.66,-84.8 2382.34,-84.8 2382.34,-48.8 2549.66,-48.8 2549.66,-84.8"/>
<text text-anchor="middle" x="2466" y="-62.6" font-family="Times,serif" font-size="14.00">SignupLandingComponent</text>
</g>
<!-- SignupLandingComponent&#45;&gt;AppModule -->
<g id="edge42" class="edge">
<title>SignupLandingComponent&#45;&gt;AppModule</title>
<path fill="none" stroke="black" d="M2466,-84.83C2466,-104.38 2466,-132.8 2466,-132.8 2466,-132.8 5183.16,-132.8 5183.16,-132.8"/>
<polygon fill="black" stroke="black" points="5183.16,-136.3 5193.16,-132.8 5183.16,-129.3 5183.16,-136.3"/>
</g>
<!-- SignupconfirmationComponent -->
<g id="node43" class="node">
<title>SignupconfirmationComponent</title>
<polygon fill="#ffffb3" stroke="black" points="2364.82,-84.8 2171.18,-84.8 2171.18,-48.8 2364.82,-48.8 2364.82,-84.8"/>
<text text-anchor="middle" x="2268" y="-62.6" font-family="Times,serif" font-size="14.00">SignupconfirmationComponent</text>
</g>
<!-- SignupconfirmationComponent&#45;&gt;AppModule -->
<g id="edge43" class="edge">
<title>SignupconfirmationComponent&#45;&gt;AppModule</title>
<path fill="none" stroke="black" d="M2268,-85.11C2268,-104.95 2268,-133.8 2268,-133.8 2268,-133.8 5183.34,-133.8 5183.34,-133.8"/>
<polygon fill="black" stroke="black" points="5183.34,-137.3 5193.34,-133.8 5183.34,-130.3 5183.34,-137.3"/>
</g>
<!-- SystemVideoComponent -->
<g id="node44" class="node">
<title>SystemVideoComponent</title>
<polygon fill="#ffffb3" stroke="black" points="2153.27,-84.8 1996.73,-84.8 1996.73,-48.8 2153.27,-48.8 2153.27,-84.8"/>
<text text-anchor="middle" x="2075" y="-62.6" font-family="Times,serif" font-size="14.00">SystemVideoComponent</text>
</g>
<!-- SystemVideoComponent&#45;&gt;AppModule -->
<g id="edge44" class="edge">
<title>SystemVideoComponent&#45;&gt;AppModule</title>
<path fill="none" stroke="black" d="M2075,-84.93C2075,-105.37 2075,-135.8 2075,-135.8 2075,-135.8 5183.31,-135.8 5183.31,-135.8"/>
<polygon fill="black" stroke="black" points="5183.31,-139.3 5193.31,-135.8 5183.31,-132.3 5183.31,-139.3"/>
</g>
<!-- TestAndOtherDocumentsComponent -->
<g id="node45" class="node">
<title>TestAndOtherDocumentsComponent</title>
<polygon fill="#ffffb3" stroke="black" points="1978.68,-84.8 1753.32,-84.8 1753.32,-48.8 1978.68,-48.8 1978.68,-84.8"/>
<text text-anchor="middle" x="1866" y="-62.6" font-family="Times,serif" font-size="14.00">TestAndOtherDocumentsComponent</text>
</g>
<!-- TestAndOtherDocumentsComponent&#45;&gt;AppModule -->
<g id="edge45" class="edge">
<title>TestAndOtherDocumentsComponent&#45;&gt;AppModule</title>
<path fill="none" stroke="black" d="M1866,-84.83C1866,-105.57 1866,-136.8 1866,-136.8 1866,-136.8 5183.32,-136.8 5183.32,-136.8"/>
<polygon fill="black" stroke="black" points="5183.32,-140.3 5193.32,-136.8 5183.32,-133.3 5183.32,-140.3"/>
</g>
<!-- UserDashboardComponent -->
<g id="node46" class="node">
<title>UserDashboardComponent</title>
<polygon fill="#ffffb3" stroke="black" points="1735.4,-84.8 1566.6,-84.8 1566.6,-48.8 1735.4,-48.8 1735.4,-84.8"/>
<text text-anchor="middle" x="1651" y="-62.6" font-family="Times,serif" font-size="14.00">UserDashboardComponent</text>
</g>
<!-- UserDashboardComponent&#45;&gt;AppModule -->
<g id="edge46" class="edge">
<title>UserDashboardComponent&#45;&gt;AppModule</title>
<path fill="none" stroke="black" d="M1651,-85.08C1651,-106.12 1651,-137.8 1651,-137.8 1651,-137.8 5183.2,-137.8 5183.2,-137.8"/>
<polygon fill="black" stroke="black" points="5183.2,-141.3 5193.2,-137.8 5183.2,-134.3 5183.2,-141.3"/>
</g>
<!-- UserEducationComponent -->
<g id="node47" class="node">
<title>UserEducationComponent</title>
<polygon fill="#ffffb3" stroke="black" points="1549.02,-84.8 1384.98,-84.8 1384.98,-48.8 1549.02,-48.8 1549.02,-84.8"/>
<text text-anchor="middle" x="1467" y="-62.6" font-family="Times,serif" font-size="14.00">UserEducationComponent</text>
</g>
<!-- UserEducationComponent&#45;&gt;AppModule -->
<g id="edge47" class="edge">
<title>UserEducationComponent&#45;&gt;AppModule</title>
<path fill="none" stroke="black" d="M1467,-84.97C1467,-106.3 1467,-138.8 1467,-138.8 1467,-138.8 5183.33,-138.8 5183.33,-138.8"/>
<polygon fill="black" stroke="black" points="5183.33,-142.3 5193.33,-138.8 5183.33,-135.3 5183.33,-142.3"/>
</g>
<!-- UserMenuComponent -->
<g id="node48" class="node">
<title>UserMenuComponent</title>
<polygon fill="#ffffb3" stroke="black" points="1367.42,-84.8 1226.58,-84.8 1226.58,-48.8 1367.42,-48.8 1367.42,-84.8"/>
<text text-anchor="middle" x="1297" y="-62.6" font-family="Times,serif" font-size="14.00">UserMenuComponent</text>
</g>
<!-- UserMenuComponent&#45;&gt;AppModule -->
<g id="edge48" class="edge">
<title>UserMenuComponent&#45;&gt;AppModule</title>
<path fill="none" stroke="black" d="M1297,-85.09C1297,-107.01 1297,-140.8 1297,-140.8 1297,-140.8 5183.11,-140.8 5183.11,-140.8"/>
<polygon fill="black" stroke="black" points="5183.11,-144.3 5193.11,-140.8 5183.11,-137.3 5183.11,-144.3"/>
</g>
<!-- UserNamePhotoComponent -->
<g id="node49" class="node">
<title>UserNamePhotoComponent</title>
<polygon fill="#ffffb3" stroke="black" points="1208.86,-84.8 1035.14,-84.8 1035.14,-48.8 1208.86,-48.8 1208.86,-84.8"/>
<text text-anchor="middle" x="1122" y="-62.6" font-family="Times,serif" font-size="14.00">UserNamePhotoComponent</text>
</g>
<!-- UserNamePhotoComponent&#45;&gt;AppModule -->
<g id="edge49" class="edge">
<title>UserNamePhotoComponent&#45;&gt;AppModule</title>
<path fill="none" stroke="black" d="M1122,-84.96C1122,-107.15 1122,-141.8 1122,-141.8 1122,-141.8 5183.29,-141.8 5183.29,-141.8"/>
<polygon fill="black" stroke="black" points="5183.29,-145.3 5193.29,-141.8 5183.29,-138.3 5183.29,-145.3"/>
</g>
<!-- UserPersonalInfoComponent -->
<g id="node50" class="node">
<title>UserPersonalInfoComponent</title>
<polygon fill="#ffffb3" stroke="black" points="1016.79,-84.8 837.21,-84.8 837.21,-48.8 1016.79,-48.8 1016.79,-84.8"/>
<text text-anchor="middle" x="927" y="-62.6" font-family="Times,serif" font-size="14.00">UserPersonalInfoComponent</text>
</g>
<!-- UserPersonalInfoComponent&#45;&gt;AppModule -->
<g id="edge50" class="edge">
<title>UserPersonalInfoComponent&#45;&gt;AppModule</title>
<path fill="none" stroke="black" d="M927,-84.81C927,-107.29 927,-142.8 927,-142.8 927,-142.8 5183.06,-142.8 5183.06,-142.8"/>
<polygon fill="black" stroke="black" points="5183.06,-146.3 5193.06,-142.8 5183.06,-139.3 5183.06,-146.3"/>
</g>
<!-- UserProfileComponent -->
<g id="node51" class="node">
<title>UserProfileComponent</title>
<polygon fill="#ffffb3" stroke="black" points="818.86,-84.8 673.14,-84.8 673.14,-48.8 818.86,-48.8 818.86,-84.8"/>
<text text-anchor="middle" x="746" y="-62.6" font-family="Times,serif" font-size="14.00">UserProfileComponent</text>
</g>
<!-- UserProfileComponent&#45;&gt;AppModule -->
<g id="edge51" class="edge">
<title>UserProfileComponent&#45;&gt;AppModule</title>
<path fill="none" stroke="black" d="M746,-85.05C746,-107.82 746,-143.8 746,-143.8 746,-143.8 5183.08,-143.8 5183.08,-143.8"/>
<polygon fill="black" stroke="black" points="5183.08,-147.3 5193.08,-143.8 5183.08,-140.3 5183.08,-147.3"/>
</g>
<!-- UserSkillComponent -->
<g id="node52" class="node">
<title>UserSkillComponent</title>
<polygon fill="#ffffb3" stroke="black" points="655.21,-84.8 520.79,-84.8 520.79,-48.8 655.21,-48.8 655.21,-84.8"/>
<text text-anchor="middle" x="588" y="-62.6" font-family="Times,serif" font-size="14.00">UserSkillComponent</text>
</g>
<!-- UserSkillComponent&#45;&gt;AppModule -->
<g id="edge52" class="edge">
<title>UserSkillComponent&#45;&gt;AppModule</title>
<path fill="none" stroke="black" d="M588,-85.12C588,-108.46 588,-145.8 588,-145.8 588,-145.8 5183.05,-145.8 5183.05,-145.8"/>
<polygon fill="black" stroke="black" points="5183.05,-149.3 5193.05,-145.8 5183.05,-142.3 5183.05,-149.3"/>
</g>
<!-- UserWorkExperienceComponent -->
<g id="node53" class="node">
<title>UserWorkExperienceComponent</title>
<polygon fill="#ffffb3" stroke="black" points="503.1,-84.8 300.9,-84.8 300.9,-48.8 503.1,-48.8 503.1,-84.8"/>
<text text-anchor="middle" x="402" y="-62.6" font-family="Times,serif" font-size="14.00">UserWorkExperienceComponent</text>
</g>
<!-- UserWorkExperienceComponent&#45;&gt;AppModule -->
<g id="edge53" class="edge">
<title>UserWorkExperienceComponent&#45;&gt;AppModule</title>
<path fill="none" stroke="black" d="M402,-84.95C402,-108.56 402,-146.8 402,-146.8 402,-146.8 5183.22,-146.8 5183.22,-146.8"/>
<polygon fill="black" stroke="black" points="5183.22,-150.3 5193.22,-146.8 5183.22,-143.3 5183.22,-150.3"/>
</g>
<!-- AppComponent  -->
<g id="node57" class="node">
<title>AppComponent </title>
<polygon fill="#80b1d3" stroke="black" points="5289.44,-214.8 5180.56,-214.8 5180.56,-178.8 5289.44,-178.8 5289.44,-214.8"/>
<text text-anchor="middle" x="5235" y="-192.6" font-family="Times,serif" font-size="14.00">AppComponent </text>
</g>
<!-- AppModule&#45;&gt;AppComponent  -->
<g id="edge56" class="edge">
<title>AppModule&#45;&gt;AppComponent </title>
<path fill="none" stroke="black" stroke-dasharray="1,5" d="M5235,-149.91C5235,-149.91 5235,-168.79 5235,-168.79"/>
<polygon fill="black" stroke="black" points="5231.5,-168.79 5235,-178.79 5238.5,-168.79 5231.5,-168.79"/>
</g>
<!-- AppRoutingModule -->
<g id="node55" class="node">
<title>AppRoutingModule</title>
<polygon fill="#8dd3c7" stroke="black" points="277.27,-84.8 274.27,-88.8 253.27,-88.8 250.27,-84.8 148.73,-84.8 148.73,-48.8 277.27,-48.8 277.27,-84.8"/>
<text text-anchor="middle" x="213" y="-62.6" font-family="Times,serif" font-size="14.00">AppRoutingModule</text>
</g>
<!-- AppRoutingModule&#45;&gt;AppModule -->
<g id="edge54" class="edge">
<title>AppRoutingModule&#45;&gt;AppModule</title>
<path fill="none" stroke="black" d="M213,-85.18C213,-109.08 213,-147.8 213,-147.8 213,-147.8 5183.09,-147.8 5183.09,-147.8"/>
<polygon fill="black" stroke="black" points="5183.09,-151.3 5193.09,-147.8 5183.09,-144.3 5183.09,-151.3"/>
</g>
<!-- MaterialModule -->
<g id="node56" class="node">
<title>MaterialModule</title>
<polygon fill="#8dd3c7" stroke="black" points="130.47,-84.8 127.47,-88.8 106.47,-88.8 103.47,-84.8 23.53,-84.8 23.53,-48.8 130.47,-48.8 130.47,-84.8"/>
<text text-anchor="middle" x="77" y="-62.6" font-family="Times,serif" font-size="14.00">MaterialModule</text>
</g>
<!-- MaterialModule&#45;&gt;AppModule -->
<g id="edge55" class="edge">
<title>MaterialModule&#45;&gt;AppModule</title>
<path fill="none" stroke="black" d="M77,-85C77,-109.16 77,-148.8 77,-148.8 77,-148.8 5183.1,-148.8 5183.1,-148.8"/>
<polygon fill="black" stroke="black" points="5183.1,-152.3 5193.1,-148.8 5183.1,-145.3 5183.1,-152.3"/>
</g>
<!-- ErrordialogService -->
<g id="node58" class="node">
<title>ErrordialogService</title>
<ellipse fill="#fdb462" stroke="black" cx="10394" cy="-66.8" rx="84.51" ry="18"/>
<text text-anchor="middle" x="10394" y="-62.6" font-family="Times,serif" font-size="14.00">ErrordialogService</text>
</g>
<!-- ErrordialogService&#45;&gt;AppModule -->
<g id="edge57" class="edge">
<title>ErrordialogService&#45;&gt;AppModule</title>
<path fill="none" stroke="black" d="M10394,-85C10394,-109.16 10394,-148.8 10394,-148.8 10394,-148.8 5286.91,-148.8 5286.91,-148.8"/>
<polygon fill="black" stroke="black" points="5286.91,-145.3 5276.91,-148.8 5286.91,-152.3 5286.91,-145.3"/>
</g>
<!-- HttpConfigInterceptor -->
<g id="node59" class="node">
<title>HttpConfigInterceptor</title>
<ellipse fill="#fdb462" stroke="black" cx="10194" cy="-66.8" rx="97.27" ry="18"/>
<text text-anchor="middle" x="10194" y="-62.6" font-family="Times,serif" font-size="14.00">HttpConfigInterceptor</text>
</g>
<!-- HttpConfigInterceptor&#45;&gt;AppModule -->
<g id="edge58" class="edge">
<title>HttpConfigInterceptor&#45;&gt;AppModule</title>
<path fill="none" stroke="black" d="M10194,-85.18C10194,-109.08 10194,-147.8 10194,-147.8 10194,-147.8 5286.75,-147.8 5286.75,-147.8"/>
<polygon fill="black" stroke="black" points="5286.75,-144.3 5276.75,-147.8 5286.75,-151.3 5286.75,-144.3"/>
</g>
<!-- UserProfileService -->
<g id="node60" class="node">
<title>UserProfileService</title>
<ellipse fill="#fdb462" stroke="black" cx="9994" cy="-66.8" rx="84.5" ry="18"/>
<text text-anchor="middle" x="9994" y="-62.6" font-family="Times,serif" font-size="14.00">UserProfileService</text>
</g>
<!-- UserProfileService&#45;&gt;AppModule -->
<g id="edge59" class="edge">
<title>UserProfileService&#45;&gt;AppModule</title>
<path fill="none" stroke="black" d="M9994,-84.95C9994,-108.56 9994,-146.8 9994,-146.8 9994,-146.8 5286.87,-146.8 5286.87,-146.8"/>
<polygon fill="black" stroke="black" points="5286.87,-143.3 5276.87,-146.8 5286.87,-150.3 5286.87,-143.3"/>
</g>
</g>
</svg>
