<?xml version="1.0" encoding="UTF-8" standalone="no"?>
<!DOCTYPE svg PUBLIC "-//W3C//DTD SVG 1.1//EN"
 "http://www.w3.org/Graphics/SVG/1.1/DTD/svg11.dtd">
<!-- Generated by graphviz version 2.47.3 (20210619.1520)
 -->
<!-- Title: dependencies Pages: 1 -->
<svg width="10694pt" height="247pt"
 viewBox="0.00 0.00 10694.00 246.80" xmlns="http://www.w3.org/2000/svg" xmlns:xlink="http://www.w3.org/1999/xlink">
<g id="graph0" class="graph" transform="scale(1 1) rotate(0) translate(4 242.8)">
<title>dependencies</title>
<polygon fill="white" stroke="transparent" points="-4,4 -4,-242.8 10690,-242.8 10690,4 -4,4"/>
<text text-anchor="middle" x="5343" y="-8.2" font-family="sans-serif" font-size="14.00">dependencies</text>
<g id="clust1" class="cluster">
<title>cluster_AppModule</title>
<polygon fill="none" stroke="black" stroke-dasharray="1,5" points="8,-32.8 8,-230.8 10678,-230.8 10678,-32.8 8,-32.8"/>
</g>
<g id="clust60" class="cluster">
<title>cluster_AppModule_providers</title>
<polygon fill="none" stroke="black" points="10084,-40.8 10084,-92.8 10670,-92.8 10670,-40.8 10084,-40.8"/>
</g>
<g id="clust57" class="cluster">
<title>cluster_AppModule_imports</title>
<polygon fill="none" stroke="black" points="9807,-40.8 9807,-92.8 10076,-92.8 10076,-40.8 9807,-40.8"/>
</g>
<g id="clust59" class="cluster">
<title>cluster_AppModule_bootstrap</title>
<polygon fill="none" stroke="black" points="5350,-170.8 5350,-222.8 5474,-222.8 5474,-170.8 5350,-170.8"/>
</g>
<g id="clust2" class="cluster">
<title>cluster_AppModule_declarations</title>
<polygon fill="none" stroke="black" points="16,-40.8 16,-92.8 9799,-92.8 9799,-40.8 16,-40.8"/>
</g>
<!-- AboutCandidateComponent -->
<g id="node1" class="node">
<title>AboutCandidateComponent</title>
<polygon fill="#ffffb3" stroke="black" points="9790.59,-84.8 9617.41,-84.8 9617.41,-48.8 9790.59,-48.8 9790.59,-84.8"/>
<text text-anchor="middle" x="9704" y="-62.6" font-family="Times,serif" font-size="14.00">AboutCandidateComponent</text>
</g>
<!-- AppModule -->
<g id="node55" class="node">
<title>AppModule</title>
<polygon fill="#8dd3c7" stroke="black" points="5453.66,-149.8 5450.66,-153.8 5429.66,-153.8 5426.66,-149.8 5370.34,-149.8 5370.34,-113.8 5453.66,-113.8 5453.66,-149.8"/>
<text text-anchor="middle" x="5412" y="-127.6" font-family="Times,serif" font-size="14.00">AppModule</text>
</g>
<!-- AboutCandidateComponent&#45;&gt;AppModule -->
<g id="edge1" class="edge">
<title>AboutCandidateComponent&#45;&gt;AppModule</title>
<path fill="none" stroke="black" d="M9704,-84.81C9704,-107.29 9704,-142.8 9704,-142.8 9704,-142.8 5463.79,-142.8 5463.79,-142.8"/>
<polygon fill="black" stroke="black" points="5463.79,-139.3 5453.79,-142.8 5463.79,-146.3 5463.79,-139.3"/>
</g>
<!-- AboutJobComponent -->
<g id="node2" class="node">
<title>AboutJobComponent</title>
<polygon fill="#ffffb3" stroke="black" points="9599.77,-84.8 9464.23,-84.8 9464.23,-48.8 9599.77,-48.8 9599.77,-84.8"/>
<text text-anchor="middle" x="9532" y="-62.6" font-family="Times,serif" font-size="14.00">AboutJobComponent</text>
</g>
<!-- AboutJobComponent&#45;&gt;AppModule -->
<g id="edge2" class="edge">
<title>AboutJobComponent&#45;&gt;AppModule</title>
<path fill="none" stroke="black" d="M9532,-84.96C9532,-107.15 9532,-141.8 9532,-141.8 9532,-141.8 5463.78,-141.8 5463.78,-141.8"/>
<polygon fill="black" stroke="black" points="5463.78,-138.3 5453.78,-141.8 5463.78,-145.3 5463.78,-138.3"/>
</g>
<!-- AddExperienceComponent -->
<g id="node3" class="node">
<title>AddExperienceComponent</title>
<polygon fill="#ffffb3" stroke="black" points="9446.4,-84.8 9277.6,-84.8 9277.6,-48.8 9446.4,-48.8 9446.4,-84.8"/>
<text text-anchor="middle" x="9362" y="-62.6" font-family="Times,serif" font-size="14.00">AddExperienceComponent</text>
</g>
<!-- AddExperienceComponent&#45;&gt;AppModule -->
<g id="edge3" class="edge">
<title>AddExperienceComponent&#45;&gt;AppModule</title>
<path fill="none" stroke="black" d="M9362,-85.09C9362,-107.01 9362,-140.8 9362,-140.8 9362,-140.8 5463.69,-140.8 5463.69,-140.8"/>
<polygon fill="black" stroke="black" points="5463.69,-137.3 5453.69,-140.8 5463.69,-144.3 5463.69,-137.3"/>
</g>
<!-- AllJobsComponent -->
<g id="node4" class="node">
<title>AllJobsComponent</title>
<polygon fill="#ffffb3" stroke="black" points="9260.11,-84.8 9135.89,-84.8 9135.89,-48.8 9260.11,-48.8 9260.11,-84.8"/>
<text text-anchor="middle" x="9198" y="-62.6" font-family="Times,serif" font-size="14.00">AllJobsComponent</text>
</g>
<!-- AllJobsComponent&#45;&gt;AppModule -->
<g id="edge4" class="edge">
<title>AllJobsComponent&#45;&gt;AppModule</title>
<path fill="none" stroke="black" d="M9198,-84.84C9198,-106.46 9198,-139.8 9198,-139.8 9198,-139.8 5463.87,-139.8 5463.87,-139.8"/>
<polygon fill="black" stroke="black" points="5463.87,-136.3 5453.87,-139.8 5463.87,-143.3 5463.87,-136.3"/>
</g>
<!-- AppComponent -->
<g id="node5" class="node">
<title>AppComponent</title>
<polygon fill="#ffffb3" stroke="black" points="9117.94,-84.8 9012.06,-84.8 9012.06,-48.8 9117.94,-48.8 9117.94,-84.8"/>
<text text-anchor="middle" x="9065" y="-62.6" font-family="Times,serif" font-size="14.00">AppComponent</text>
</g>
<!-- AppComponent&#45;&gt;AppModule -->
<g id="edge5" class="edge">
<title>AppComponent&#45;&gt;AppModule</title>
<path fill="none" stroke="black" d="M9065,-85.08C9065,-106.12 9065,-137.8 9065,-137.8 9065,-137.8 5463.97,-137.8 5463.97,-137.8"/>
<polygon fill="black" stroke="black" points="5463.97,-134.3 5453.97,-137.8 5463.97,-141.3 5463.97,-134.3"/>
</g>
<!-- CompanyListComponent -->
<g id="node6" class="node">
<title>CompanyListComponent</title>
<polygon fill="#ffffb3" stroke="black" points="8994.55,-84.8 8837.45,-84.8 8837.45,-48.8 8994.55,-48.8 8994.55,-84.8"/>
<text text-anchor="middle" x="8916" y="-62.6" font-family="Times,serif" font-size="14.00">CompanyListComponent</text>
</g>
<!-- CompanyListComponent&#45;&gt;AppModule -->
<g id="edge6" class="edge">
<title>CompanyListComponent&#45;&gt;AppModule</title>
<path fill="none" stroke="black" d="M8916,-84.83C8916,-105.57 8916,-136.8 8916,-136.8 8916,-136.8 5463.79,-136.8 5463.79,-136.8"/>
<polygon fill="black" stroke="black" points="5463.79,-133.3 5453.79,-136.8 5463.79,-140.3 5463.79,-133.3"/>
</g>
<!-- CompanyMenuComponent -->
<g id="node7" class="node">
<title>CompanyMenuComponent</title>
<polygon fill="#ffffb3" stroke="black" points="8819.43,-84.8 8650.57,-84.8 8650.57,-48.8 8819.43,-48.8 8819.43,-84.8"/>
<text text-anchor="middle" x="8735" y="-62.6" font-family="Times,serif" font-size="14.00">CompanyMenuComponent</text>
</g>
<!-- CompanyMenuComponent&#45;&gt;AppModule -->
<g id="edge7" class="edge">
<title>CompanyMenuComponent&#45;&gt;AppModule</title>
<path fill="none" stroke="black" d="M8735,-84.93C8735,-105.37 8735,-135.8 8735,-135.8 8735,-135.8 5463.71,-135.8 5463.71,-135.8"/>
<polygon fill="black" stroke="black" points="5463.71,-132.3 5453.71,-135.8 5463.71,-139.3 5463.71,-132.3"/>
</g>
<!-- ConfirmDialogComponent -->
<g id="node8" class="node">
<title>ConfirmDialogComponent</title>
<polygon fill="#ffffb3" stroke="black" points="8632.37,-84.8 8465.63,-84.8 8465.63,-48.8 8632.37,-48.8 8632.37,-84.8"/>
<text text-anchor="middle" x="8549" y="-62.6" font-family="Times,serif" font-size="14.00">ConfirmDialogComponent</text>
</g>
<!-- ConfirmDialogComponent&#45;&gt;AppModule -->
<g id="edge8" class="edge">
<title>ConfirmDialogComponent&#45;&gt;AppModule</title>
<path fill="none" stroke="black" d="M8549,-85.02C8549,-105.17 8549,-134.8 8549,-134.8 8549,-134.8 5463.68,-134.8 5463.68,-134.8"/>
<polygon fill="black" stroke="black" points="5463.68,-131.3 5453.68,-134.8 5463.68,-138.3 5463.68,-131.3"/>
</g>
<!-- ContactComponent -->
<g id="node9" class="node">
<title>ContactComponent</title>
<polygon fill="#ffffb3" stroke="black" points="8447.38,-84.8 8322.62,-84.8 8322.62,-48.8 8447.38,-48.8 8447.38,-84.8"/>
<text text-anchor="middle" x="8385" y="-62.6" font-family="Times,serif" font-size="14.00">ContactComponent</text>
</g>
<!-- ContactComponent&#45;&gt;AppModule -->
<g id="edge9" class="edge">
<title>ContactComponent&#45;&gt;AppModule</title>
<path fill="none" stroke="black" d="M8385,-85.11C8385,-104.95 8385,-133.8 8385,-133.8 8385,-133.8 5463.74,-133.8 5463.74,-133.8"/>
<polygon fill="black" stroke="black" points="5463.74,-130.3 5453.74,-133.8 5463.74,-137.3 5463.74,-130.3"/>
</g>
<!-- CreateCompanyComponent -->
<g id="node10" class="node">
<title>CreateCompanyComponent</title>
<polygon fill="#ffffb3" stroke="black" points="8304.31,-84.8 8131.69,-84.8 8131.69,-48.8 8304.31,-48.8 8304.31,-84.8"/>
<text text-anchor="middle" x="8218" y="-62.6" font-family="Times,serif" font-size="14.00">CreateCompanyComponent</text>
</g>
<!-- CreateCompanyComponent&#45;&gt;AppModule -->
<g id="edge10" class="edge">
<title>CreateCompanyComponent&#45;&gt;AppModule</title>
<path fill="none" stroke="black" d="M8218,-84.91C8218,-104.14 8218,-131.8 8218,-131.8 8218,-131.8 5463.84,-131.8 5463.84,-131.8"/>
<polygon fill="black" stroke="black" points="5463.84,-128.3 5453.84,-131.8 5463.84,-135.3 5463.84,-128.3"/>
</g>
<!-- CreateNewEmailComponent -->
<g id="node11" class="node">
<title>CreateNewEmailComponent</title>
<polygon fill="#ffffb3" stroke="black" points="8113.73,-84.8 7936.27,-84.8 7936.27,-48.8 8113.73,-48.8 8113.73,-84.8"/>
<text text-anchor="middle" x="8025" y="-62.6" font-family="Times,serif" font-size="14.00">CreateNewEmailComponent</text>
</g>
<!-- CreateNewEmailComponent&#45;&gt;AppModule -->
<g id="edge11" class="edge">
<title>CreateNewEmailComponent&#45;&gt;AppModule</title>
<path fill="none" stroke="black" d="M8025,-84.97C8025,-103.89 8025,-130.8 8025,-130.8 8025,-130.8 5463.84,-130.8 5463.84,-130.8"/>
<polygon fill="black" stroke="black" points="5463.84,-127.3 5453.84,-130.8 5463.84,-134.3 5463.84,-127.3"/>
</g>
<!-- CreateNewPhoneComponent -->
<g id="node12" class="node">
<title>CreateNewPhoneComponent</title>
<polygon fill="#ffffb3" stroke="black" points="7917.79,-84.8 7738.21,-84.8 7738.21,-48.8 7917.79,-48.8 7917.79,-84.8"/>
<text text-anchor="middle" x="7828" y="-62.6" font-family="Times,serif" font-size="14.00">CreateNewPhoneComponent</text>
</g>
<!-- CreateNewPhoneComponent&#45;&gt;AppModule -->
<g id="edge12" class="edge">
<title>CreateNewPhoneComponent&#45;&gt;AppModule</title>
<path fill="none" stroke="black" d="M7828,-85.02C7828,-103.63 7828,-129.8 7828,-129.8 7828,-129.8 5463.68,-129.8 5463.68,-129.8"/>
<polygon fill="black" stroke="black" points="5463.68,-126.3 5453.68,-129.8 5463.68,-133.3 5463.68,-126.3"/>
</g>
<!-- CreatePreferredJobLocationComponent -->
<g id="node13" class="node">
<title>CreatePreferredJobLocationComponent</title>
<polygon fill="#ffffb3" stroke="black" points="7720.64,-84.8 7481.36,-84.8 7481.36,-48.8 7720.64,-48.8 7720.64,-84.8"/>
<text text-anchor="middle" x="7601" y="-62.6" font-family="Times,serif" font-size="14.00">CreatePreferredJobLocationComponent</text>
</g>
<!-- CreatePreferredJobLocationComponent&#45;&gt;AppModule -->
<g id="edge13" class="edge">
<title>CreatePreferredJobLocationComponent&#45;&gt;AppModule</title>
<path fill="none" stroke="black" d="M7601,-85.07C7601,-103.36 7601,-128.8 7601,-128.8 7601,-128.8 5463.77,-128.8 5463.77,-128.8"/>
<polygon fill="black" stroke="black" points="5463.77,-125.3 5453.77,-128.8 5463.77,-132.3 5463.77,-125.3"/>
</g>
<!-- CustomerListComponent -->
<g id="node14" class="node">
<title>CustomerListComponent</title>
<polygon fill="#ffffb3" stroke="black" points="7463.55,-84.8 7306.45,-84.8 7306.45,-48.8 7463.55,-48.8 7463.55,-84.8"/>
<text text-anchor="middle" x="7385" y="-62.6" font-family="Times,serif" font-size="14.00">CustomerListComponent</text>
</g>
<!-- CustomerListComponent&#45;&gt;AppModule -->
<g id="edge14" class="edge">
<title>CustomerListComponent&#45;&gt;AppModule</title>
<path fill="none" stroke="black" d="M7385,-85.1C7385,-103.07 7385,-127.8 7385,-127.8 7385,-127.8 5463.66,-127.8 5463.66,-127.8"/>
<polygon fill="black" stroke="black" points="5463.66,-124.3 5453.66,-127.8 5463.66,-131.3 5463.66,-124.3"/>
</g>
<!-- EditExperienceComponent -->
<g id="node15" class="node">
<title>EditExperienceComponent</title>
<polygon fill="#ffffb3" stroke="black" points="7287.63,-84.8 7120.37,-84.8 7120.37,-48.8 7287.63,-48.8 7287.63,-84.8"/>
<text text-anchor="middle" x="7204" y="-62.6" font-family="Times,serif" font-size="14.00">EditExperienceComponent</text>
</g>
<!-- EditExperienceComponent&#45;&gt;AppModule -->
<g id="edge15" class="edge">
<title>EditExperienceComponent&#45;&gt;AppModule</title>
<path fill="none" stroke="black" d="M7204,-84.82C7204,-102.17 7204,-125.8 7204,-125.8 7204,-125.8 5463.66,-125.8 5463.66,-125.8"/>
<polygon fill="black" stroke="black" points="5463.66,-122.3 5453.66,-125.8 5463.66,-129.3 5463.66,-122.3"/>
</g>
<!-- EmployeeAccountComponent -->
<g id="node16" class="node">
<title>EmployeeAccountComponent</title>
<polygon fill="#ffffb3" stroke="black" points="7101.52,-84.8 6916.48,-84.8 6916.48,-48.8 7101.52,-48.8 7101.52,-84.8"/>
<text text-anchor="middle" x="7009" y="-62.6" font-family="Times,serif" font-size="14.00">EmployeeAccountComponent</text>
</g>
<!-- EmployeeAccountComponent&#45;&gt;AppModule -->
<g id="edge16" class="edge">
<title>EmployeeAccountComponent&#45;&gt;AppModule</title>
<path fill="none" stroke="black" d="M7009,-84.83C7009,-101.86 7009,-124.8 7009,-124.8 7009,-124.8 5463.9,-124.8 5463.9,-124.8"/>
<polygon fill="black" stroke="black" points="5463.9,-121.3 5453.9,-124.8 5463.89,-128.3 5463.9,-121.3"/>
</g>
<!-- EmployerAccountComponent -->
<g id="node17" class="node">
<title>EmployerAccountComponent</title>
<polygon fill="#ffffb3" stroke="black" points="6897.97,-84.8 6714.03,-84.8 6714.03,-48.8 6897.97,-48.8 6897.97,-84.8"/>
<text text-anchor="middle" x="6806" y="-62.6" font-family="Times,serif" font-size="14.00">EmployerAccountComponent</text>
</g>
<!-- EmployerAccountComponent&#45;&gt;AppModule -->
<g id="edge17" class="edge">
<title>EmployerAccountComponent&#45;&gt;AppModule</title>
<path fill="none" stroke="black" d="M6806,-84.84C6806,-101.53 6806,-123.8 6806,-123.8 6806,-123.8 5463.72,-123.8 5463.72,-123.8"/>
<polygon fill="black" stroke="black" points="5463.72,-120.3 5453.72,-123.8 5463.72,-127.3 5463.72,-120.3"/>
</g>
<!-- EmployerQuestionsComponent -->
<g id="node18" class="node">
<title>EmployerQuestionsComponent</title>
<polygon fill="#ffffb3" stroke="black" points="6696.03,-84.8 6503.97,-84.8 6503.97,-48.8 6696.03,-48.8 6696.03,-84.8"/>
<text text-anchor="middle" x="6600" y="-62.6" font-family="Times,serif" font-size="14.00">EmployerQuestionsComponent</text>
</g>
<!-- EmployerQuestionsComponent&#45;&gt;AppModule -->
<g id="edge18" class="edge">
<title>EmployerQuestionsComponent&#45;&gt;AppModule</title>
<path fill="none" stroke="black" d="M6600,-84.83C6600,-101.2 6600,-122.8 6600,-122.8 6600,-122.8 5463.93,-122.8 5463.93,-122.8"/>
<polygon fill="black" stroke="black" points="5463.93,-119.3 5453.93,-122.8 5463.93,-126.3 5463.93,-119.3"/>
</g>
<!-- ErrordialogComponent -->
<g id="node19" class="node">
<title>ErrordialogComponent</title>
<polygon fill="#ffffb3" stroke="black" points="6485.86,-84.8 6340.14,-84.8 6340.14,-48.8 6485.86,-48.8 6485.86,-84.8"/>
<text text-anchor="middle" x="6413" y="-62.6" font-family="Times,serif" font-size="14.00">ErrordialogComponent</text>
</g>
<!-- ErrordialogComponent&#45;&gt;AppModule -->
<g id="edge19" class="edge">
<title>ErrordialogComponent&#45;&gt;AppModule</title>
<path fill="none" stroke="black" d="M6413,-84.81C6413,-100.85 6413,-121.8 6413,-121.8 6413,-121.8 5463.74,-121.8 5463.74,-121.8"/>
<polygon fill="black" stroke="black" points="5463.74,-118.3 5453.74,-121.8 5463.74,-125.3 5463.74,-118.3"/>
</g>
<!-- ExistingReferralComponent -->
<g id="node20" class="node">
<title>ExistingReferralComponent</title>
<polygon fill="#ffffb3" stroke="black" points="6321.85,-84.8 6148.15,-84.8 6148.15,-48.8 6321.85,-48.8 6321.85,-84.8"/>
<text text-anchor="middle" x="6235" y="-62.6" font-family="Times,serif" font-size="14.00">ExistingReferralComponent</text>
</g>
<!-- ExistingReferralComponent&#45;&gt;AppModule -->
<g id="edge20" class="edge">
<title>ExistingReferralComponent&#45;&gt;AppModule</title>
<path fill="none" stroke="black" d="M6235,-85.04C6235,-100.37 6235,-119.8 6235,-119.8 6235,-119.8 5463.66,-119.8 5463.66,-119.8"/>
<polygon fill="black" stroke="black" points="5463.66,-116.3 5453.66,-119.8 5463.66,-123.3 5463.66,-116.3"/>
</g>
<!-- FooterComponent -->
<g id="node21" class="node">
<title>FooterComponent</title>
<polygon fill="#ffffb3" stroke="black" points="6129.88,-84.8 6012.12,-84.8 6012.12,-48.8 6129.88,-48.8 6129.88,-84.8"/>
<text text-anchor="middle" x="6071" y="-62.6" font-family="Times,serif" font-size="14.00">FooterComponent</text>
</g>
<!-- FooterComponent&#45;&gt;AppModule -->
<g id="edge21" class="edge">
<title>FooterComponent&#45;&gt;AppModule</title>
<path fill="none" stroke="black" d="M6071,-84.99C6071,-99.98 6071,-118.8 6071,-118.8 6071,-118.8 5463.72,-118.8 5463.72,-118.8"/>
<polygon fill="black" stroke="black" points="5463.72,-115.3 5453.72,-118.8 5463.72,-122.3 5463.72,-115.3"/>
</g>
<!-- ForgetpasswordComponent -->
<g id="node22" class="node">
<title>ForgetpasswordComponent</title>
<polygon fill="#ffffb3" stroke="black" points="5994.25,-84.8 5823.75,-84.8 5823.75,-48.8 5994.25,-48.8 5994.25,-84.8"/>
<text text-anchor="middle" x="5909" y="-62.6" font-family="Times,serif" font-size="14.00">ForgetpasswordComponent</text>
</g>
<!-- ForgetpasswordComponent&#45;&gt;AppModule -->
<g id="edge22" class="edge">
<title>ForgetpasswordComponent&#45;&gt;AppModule</title>
<path fill="none" stroke="black" d="M5909,-84.92C5909,-99.58 5909,-117.8 5909,-117.8 5909,-117.8 5463.95,-117.8 5463.95,-117.8"/>
<polygon fill="black" stroke="black" points="5463.95,-114.3 5453.95,-117.8 5463.95,-121.3 5463.95,-114.3"/>
</g>
<!-- HeaderComponent -->
<g id="node23" class="node">
<title>HeaderComponent</title>
<polygon fill="#ffffb3" stroke="black" points="5805.74,-84.8 5684.26,-84.8 5684.26,-48.8 5805.74,-48.8 5805.74,-84.8"/>
<text text-anchor="middle" x="5745" y="-62.6" font-family="Times,serif" font-size="14.00">HeaderComponent</text>
</g>
<!-- HeaderComponent&#45;&gt;AppModule -->
<g id="edge23" class="edge">
<title>HeaderComponent&#45;&gt;AppModule</title>
<path fill="none" stroke="black" d="M5745,-84.85C5745,-99.17 5745,-116.8 5745,-116.8 5745,-116.8 5463.84,-116.8 5463.84,-116.8"/>
<polygon fill="black" stroke="black" points="5463.84,-113.3 5453.84,-116.8 5463.84,-120.3 5463.84,-113.3"/>
</g>
<!-- HomePageComponent -->
<g id="node24" class="node">
<title>HomePageComponent</title>
<polygon fill="#ffffb3" stroke="black" points="5666.26,-84.8 5523.74,-84.8 5523.74,-48.8 5666.26,-48.8 5666.26,-84.8"/>
<text text-anchor="middle" x="5595" y="-62.6" font-family="Times,serif" font-size="14.00">HomePageComponent</text>
</g>
<!-- HomePageComponent&#45;&gt;AppModule -->
<g id="edge24" class="edge">
<title>HomePageComponent&#45;&gt;AppModule</title>
<path fill="none" stroke="black" d="M5595,-85.05C5595,-98.98 5595,-115.8 5595,-115.8 5595,-115.8 5463.98,-115.8 5463.98,-115.8"/>
<polygon fill="black" stroke="black" points="5463.98,-112.3 5453.98,-115.8 5463.98,-119.3 5463.98,-112.3"/>
</g>
<!-- InterviewScheduleComponent -->
<g id="node25" class="node">
<title>InterviewScheduleComponent</title>
<polygon fill="#ffffb3" stroke="black" points="5505.29,-84.8 5318.71,-84.8 5318.71,-48.8 5505.29,-48.8 5505.29,-84.8"/>
<text text-anchor="middle" x="5412" y="-62.6" font-family="Times,serif" font-size="14.00">InterviewScheduleComponent</text>
</g>
<!-- InterviewScheduleComponent&#45;&gt;AppModule -->
<g id="edge25" class="edge">
<title>InterviewScheduleComponent&#45;&gt;AppModule</title>
<path fill="none" stroke="black" d="M5412,-84.91C5412,-84.91 5412,-103.79 5412,-103.79"/>
<polygon fill="black" stroke="black" points="5408.5,-103.79 5412,-113.79 5415.5,-103.79 5408.5,-103.79"/>
</g>
<!-- IntroVideoComponent -->
<g id="node26" class="node">
<title>IntroVideoComponent</title>
<polygon fill="#ffffb3" stroke="black" points="5300.26,-84.8 5157.74,-84.8 5157.74,-48.8 5300.26,-48.8 5300.26,-84.8"/>
<text text-anchor="middle" x="5229" y="-62.6" font-family="Times,serif" font-size="14.00">IntroVideoComponent</text>
</g>
<!-- IntroVideoComponent&#45;&gt;AppModule -->
<g id="edge26" class="edge">
<title>IntroVideoComponent&#45;&gt;AppModule</title>
<path fill="none" stroke="black" d="M5229,-85.05C5229,-98.98 5229,-115.8 5229,-115.8 5229,-115.8 5360.02,-115.8 5360.02,-115.8"/>
<polygon fill="black" stroke="black" points="5360.02,-119.3 5370.02,-115.8 5360.02,-112.3 5360.02,-119.3"/>
</g>
<!-- JobsInterestedInComponent -->
<g id="node27" class="node">
<title>JobsInterestedInComponent</title>
<polygon fill="#ffffb3" stroke="black" points="5139.57,-84.8 4966.43,-84.8 4966.43,-48.8 5139.57,-48.8 5139.57,-84.8"/>
<text text-anchor="middle" x="5053" y="-62.6" font-family="Times,serif" font-size="14.00">JobsInterestedInComponent</text>
</g>
<!-- JobsInterestedInComponent&#45;&gt;AppModule -->
<g id="edge27" class="edge">
<title>JobsInterestedInComponent&#45;&gt;AppModule</title>
<path fill="none" stroke="black" d="M5053,-84.85C5053,-99.17 5053,-116.8 5053,-116.8 5053,-116.8 5360.12,-116.8 5360.12,-116.8"/>
<polygon fill="black" stroke="black" points="5360.12,-120.3 5370.12,-116.8 5360.12,-113.3 5360.12,-120.3"/>
</g>
<!-- KeyPointsComponent -->
<g id="node28" class="node">
<title>KeyPointsComponent</title>
<polygon fill="#ffffb3" stroke="black" points="4948.66,-84.8 4809.34,-84.8 4809.34,-48.8 4948.66,-48.8 4948.66,-84.8"/>
<text text-anchor="middle" x="4879" y="-62.6" font-family="Times,serif" font-size="14.00">KeyPointsComponent</text>
</g>
<!-- KeyPointsComponent&#45;&gt;AppModule -->
<g id="edge28" class="edge">
<title>KeyPointsComponent&#45;&gt;AppModule</title>
<path fill="none" stroke="black" d="M4879,-84.92C4879,-99.58 4879,-117.8 4879,-117.8 4879,-117.8 5360.18,-117.8 5360.18,-117.8"/>
<polygon fill="black" stroke="black" points="5360.18,-121.3 5370.18,-117.8 5360.18,-114.3 5360.18,-121.3"/>
</g>
<!-- LoginComponent -->
<g id="node29" class="node">
<title>LoginComponent</title>
<polygon fill="#ffffb3" stroke="black" points="4791.28,-84.8 4676.72,-84.8 4676.72,-48.8 4791.28,-48.8 4791.28,-84.8"/>
<text text-anchor="middle" x="4734" y="-62.6" font-family="Times,serif" font-size="14.00">LoginComponent</text>
</g>
<!-- LoginComponent&#45;&gt;AppModule -->
<g id="edge29" class="edge">
<title>LoginComponent&#45;&gt;AppModule</title>
<path fill="none" stroke="black" d="M4734,-84.99C4734,-99.98 4734,-118.8 4734,-118.8 4734,-118.8 5360.1,-118.8 5360.1,-118.8"/>
<polygon fill="black" stroke="black" points="5360.1,-122.3 5370.1,-118.8 5360.1,-115.3 5360.1,-122.3"/>
</g>
<!-- NavbarComponent -->
<g id="node30" class="node">
<title>NavbarComponent</title>
<polygon fill="#ffffb3" stroke="black" points="4658.03,-84.8 4535.97,-84.8 4535.97,-48.8 4658.03,-48.8 4658.03,-84.8"/>
<text text-anchor="middle" x="4597" y="-62.6" font-family="Times,serif" font-size="14.00">NavbarComponent</text>
</g>
<!-- NavbarComponent&#45;&gt;AppModule -->
<g id="edge30" class="edge">
<title>NavbarComponent&#45;&gt;AppModule</title>
<path fill="none" stroke="black" d="M4597,-85.04C4597,-100.37 4597,-119.8 4597,-119.8 4597,-119.8 5360.18,-119.8 5360.18,-119.8"/>
<polygon fill="black" stroke="black" points="5360.18,-123.3 5370.18,-119.8 5360.18,-116.3 5360.18,-123.3"/>
</g>
<!-- PendingReferralRequestComponent -->
<g id="node31" class="node">
<title>PendingReferralRequestComponent</title>
<polygon fill="#ffffb3" stroke="black" points="4518.17,-84.8 4299.83,-84.8 4299.83,-48.8 4518.17,-48.8 4518.17,-84.8"/>
<text text-anchor="middle" x="4409" y="-62.6" font-family="Times,serif" font-size="14.00">PendingReferralRequestComponent</text>
</g>
<!-- PendingReferralRequestComponent&#45;&gt;AppModule -->
<g id="edge31" class="edge">
<title>PendingReferralRequestComponent&#45;&gt;AppModule</title>
<path fill="none" stroke="black" d="M4409,-84.81C4409,-100.85 4409,-121.8 4409,-121.8 4409,-121.8 5360.18,-121.8 5360.18,-121.8"/>
<polygon fill="black" stroke="black" points="5360.18,-125.3 5370.18,-121.8 5360.18,-118.3 5360.18,-125.3"/>
</g>
<!-- PostJobComponent -->
<g id="node32" class="node">
<title>PostJobComponent</title>
<polygon fill="#ffffb3" stroke="black" points="4281.39,-84.8 4156.61,-84.8 4156.61,-48.8 4281.39,-48.8 4281.39,-84.8"/>
<text text-anchor="middle" x="4219" y="-62.6" font-family="Times,serif" font-size="14.00">PostJobComponent</text>
</g>
<!-- PostJobComponent&#45;&gt;AppModule -->
<g id="edge32" class="edge">
<title>PostJobComponent&#45;&gt;AppModule</title>
<path fill="none" stroke="black" d="M4219,-84.83C4219,-101.2 4219,-122.8 4219,-122.8 4219,-122.8 5360.24,-122.8 5360.24,-122.8"/>
<polygon fill="black" stroke="black" points="5360.24,-126.3 5370.24,-122.8 5360.24,-119.3 5360.24,-126.3"/>
</g>
<!-- PreferredJobLocationComponent -->
<g id="node33" class="node">
<title>PreferredJobLocationComponent</title>
<polygon fill="#ffffb3" stroke="black" points="4138.11,-84.8 3935.89,-84.8 3935.89,-48.8 4138.11,-48.8 4138.11,-84.8"/>
<text text-anchor="middle" x="4037" y="-62.6" font-family="Times,serif" font-size="14.00">PreferredJobLocationComponent</text>
</g>
<!-- PreferredJobLocationComponent&#45;&gt;AppModule -->
<g id="edge33" class="edge">
<title>PreferredJobLocationComponent&#45;&gt;AppModule</title>
<path fill="none" stroke="black" d="M4037,-84.84C4037,-101.53 4037,-123.8 4037,-123.8 4037,-123.8 5360.1,-123.8 5360.1,-123.8"/>
<polygon fill="black" stroke="black" points="5360.1,-127.3 5370.1,-123.8 5360.1,-120.3 5360.1,-127.3"/>
</g>
<!-- RefereeAccountComponent -->
<g id="node34" class="node">
<title>RefereeAccountComponent</title>
<polygon fill="#ffffb3" stroke="black" points="3918.28,-84.8 3745.72,-84.8 3745.72,-48.8 3918.28,-48.8 3918.28,-84.8"/>
<text text-anchor="middle" x="3832" y="-62.6" font-family="Times,serif" font-size="14.00">RefereeAccountComponent</text>
</g>
<!-- RefereeAccountComponent&#45;&gt;AppModule -->
<g id="edge34" class="edge">
<title>RefereeAccountComponent&#45;&gt;AppModule</title>
<path fill="none" stroke="black" d="M3832,-84.83C3832,-101.86 3832,-124.8 3832,-124.8 3832,-124.8 5360.15,-124.8 5360.15,-124.8"/>
<polygon fill="black" stroke="black" points="5360.15,-128.3 5370.15,-124.8 5360.15,-121.3 5360.15,-128.3"/>
</g>
<!-- RefereeScoreComponent -->
<g id="node35" class="node">
<title>RefereeScoreComponent</title>
<polygon fill="#ffffb3" stroke="black" points="3728.22,-84.8 3571.78,-84.8 3571.78,-48.8 3728.22,-48.8 3728.22,-84.8"/>
<text text-anchor="middle" x="3650" y="-62.6" font-family="Times,serif" font-size="14.00">RefereeScoreComponent</text>
</g>
<!-- RefereeScoreComponent&#45;&gt;AppModule -->
<g id="edge35" class="edge">
<title>RefereeScoreComponent&#45;&gt;AppModule</title>
<path fill="none" stroke="black" d="M3650,-84.82C3650,-102.17 3650,-125.8 3650,-125.8 3650,-125.8 5360.18,-125.8 5360.18,-125.8"/>
<polygon fill="black" stroke="black" points="5360.18,-129.3 5370.18,-125.8 5360.18,-122.3 5360.18,-129.3"/>
</g>
<!-- ReferralBonusComponent -->
<g id="node36" class="node">
<title>ReferralBonusComponent</title>
<polygon fill="#ffffb3" stroke="black" points="3553.47,-84.8 3390.53,-84.8 3390.53,-48.8 3553.47,-48.8 3553.47,-84.8"/>
<text text-anchor="middle" x="3472" y="-62.6" font-family="Times,serif" font-size="14.00">ReferralBonusComponent</text>
</g>
<!-- ReferralBonusComponent&#45;&gt;AppModule -->
<g id="edge36" class="edge">
<title>ReferralBonusComponent&#45;&gt;AppModule</title>
<path fill="none" stroke="black" d="M3472,-85.1C3472,-103.07 3472,-127.8 3472,-127.8 3472,-127.8 5360.13,-127.8 5360.13,-127.8"/>
<polygon fill="black" stroke="black" points="5360.13,-131.3 5370.13,-127.8 5360.13,-124.3 5360.13,-131.3"/>
</g>
<!-- ReferralReviewPageComponent -->
<g id="node37" class="node">
<title>ReferralReviewPageComponent</title>
<polygon fill="#ffffb3" stroke="black" points="3372.66,-84.8 3175.34,-84.8 3175.34,-48.8 3372.66,-48.8 3372.66,-84.8"/>
<text text-anchor="middle" x="3274" y="-62.6" font-family="Times,serif" font-size="14.00">ReferralReviewPageComponent</text>
</g>
<!-- ReferralReviewPageComponent&#45;&gt;AppModule -->
<g id="edge37" class="edge">
<title>ReferralReviewPageComponent&#45;&gt;AppModule</title>
<path fill="none" stroke="black" d="M3274,-85.07C3274,-103.36 3274,-128.8 3274,-128.8 3274,-128.8 5360.25,-128.8 5360.25,-128.8"/>
<polygon fill="black" stroke="black" points="5360.25,-132.3 5370.25,-128.8 5360.25,-125.3 5360.25,-132.3"/>
</g>
<!-- ReferralReviewRequestComponent -->
<g id="node38" class="node">
<title>ReferralReviewRequestComponent</title>
<polygon fill="#ffffb3" stroke="black" points="3157.55,-84.8 2942.45,-84.8 2942.45,-48.8 3157.55,-48.8 3157.55,-84.8"/>
<text text-anchor="middle" x="3050" y="-62.6" font-family="Times,serif" font-size="14.00">ReferralReviewRequestComponent</text>
</g>
<!-- ReferralReviewRequestComponent&#45;&gt;AppModule -->
<g id="edge38" class="edge">
<title>ReferralReviewRequestComponent&#45;&gt;AppModule</title>
<path fill="none" stroke="black" d="M3050,-85.02C3050,-103.63 3050,-129.8 3050,-129.8 3050,-129.8 5360.25,-129.8 5360.25,-129.8"/>
<polygon fill="black" stroke="black" points="5360.25,-133.3 5370.25,-129.8 5360.25,-126.3 5360.25,-133.3"/>
</g>
<!-- ResetpasswordComponent -->
<g id="node39" class="node">
<title>ResetpasswordComponent</title>
<polygon fill="#ffffb3" stroke="black" points="2924.8,-84.8 2759.2,-84.8 2759.2,-48.8 2924.8,-48.8 2924.8,-84.8"/>
<text text-anchor="middle" x="2842" y="-62.6" font-family="Times,serif" font-size="14.00">ResetpasswordComponent</text>
</g>
<!-- ResetpasswordComponent&#45;&gt;AppModule -->
<g id="edge39" class="edge">
<title>ResetpasswordComponent&#45;&gt;AppModule</title>
<path fill="none" stroke="black" d="M2842,-84.97C2842,-103.89 2842,-130.8 2842,-130.8 2842,-130.8 5360.33,-130.8 5360.33,-130.8"/>
<polygon fill="black" stroke="black" points="5360.33,-134.3 5370.33,-130.8 5360.33,-127.3 5360.33,-134.3"/>
</g>
<!-- SavedJobsComponent -->
<g id="node40" class="node">
<title>SavedJobsComponent</title>
<polygon fill="#ffffb3" stroke="black" points="2741.43,-84.8 2600.57,-84.8 2600.57,-48.8 2741.43,-48.8 2741.43,-84.8"/>
<text text-anchor="middle" x="2671" y="-62.6" font-family="Times,serif" font-size="14.00">SavedJobsComponent</text>
</g>
<!-- SavedJobsComponent&#45;&gt;AppModule -->
<g id="edge40" class="edge">
<title>SavedJobsComponent&#45;&gt;AppModule</title>
<path fill="none" stroke="black" d="M2671,-84.91C2671,-104.14 2671,-131.8 2671,-131.8 2671,-131.8 5360.31,-131.8 5360.31,-131.8"/>
<polygon fill="black" stroke="black" points="5360.31,-135.3 5370.31,-131.8 5360.31,-128.3 5360.31,-135.3"/>
</g>
<!-- SearchAgentComponent -->
<g id="node41" class="node">
<title>SearchAgentComponent</title>
<polygon fill="#ffffb3" stroke="black" points="2582.63,-84.8 2429.37,-84.8 2429.37,-48.8 2582.63,-48.8 2582.63,-84.8"/>
<text text-anchor="middle" x="2506" y="-62.6" font-family="Times,serif" font-size="14.00">SearchAgentComponent</text>
</g>
<!-- SearchAgentComponent&#45;&gt;AppModule -->
<g id="edge41" class="edge">
<title>SearchAgentComponent&#45;&gt;AppModule</title>
<path fill="none" stroke="black" d="M2506,-85.11C2506,-104.95 2506,-133.8 2506,-133.8 2506,-133.8 5360.08,-133.8 5360.08,-133.8"/>
<polygon fill="black" stroke="black" points="5360.08,-137.3 5370.08,-133.8 5360.08,-130.3 5360.08,-137.3"/>
</g>
<!-- SignupComponent -->
<g id="node42" class="node">
<title>SignupComponent</title>
<polygon fill="#ffffb3" stroke="black" points="2411.51,-84.8 2290.49,-84.8 2290.49,-48.8 2411.51,-48.8 2411.51,-84.8"/>
<text text-anchor="middle" x="2351" y="-62.6" font-family="Times,serif" font-size="14.00">SignupComponent</text>
</g>
<!-- SignupComponent&#45;&gt;AppModule -->
<g id="edge42" class="edge">
<title>SignupComponent&#45;&gt;AppModule</title>
<path fill="none" stroke="black" d="M2351,-85.02C2351,-105.17 2351,-134.8 2351,-134.8 2351,-134.8 5360.18,-134.8 5360.18,-134.8"/>
<polygon fill="black" stroke="black" points="5360.18,-138.3 5370.18,-134.8 5360.18,-131.3 5360.18,-138.3"/>
</g>
<!-- SignupLandingComponent -->
<g id="node43" class="node">
<title>SignupLandingComponent</title>
<polygon fill="#ffffb3" stroke="black" points="2272.66,-84.8 2105.34,-84.8 2105.34,-48.8 2272.66,-48.8 2272.66,-84.8"/>
<text text-anchor="middle" x="2189" y="-62.6" font-family="Times,serif" font-size="14.00">SignupLandingComponent</text>
</g>
<!-- SignupLandingComponent&#45;&gt;AppModule -->
<g id="edge43" class="edge">
<title>SignupLandingComponent&#45;&gt;AppModule</title>
<path fill="none" stroke="black" d="M2189,-84.93C2189,-105.37 2189,-135.8 2189,-135.8 2189,-135.8 5360.07,-135.8 5360.07,-135.8"/>
<polygon fill="black" stroke="black" points="5360.07,-139.3 5370.07,-135.8 5360.07,-132.3 5360.07,-139.3"/>
</g>
<!-- SignupconfirmationComponent -->
<g id="node44" class="node">
<title>SignupconfirmationComponent</title>
<polygon fill="#ffffb3" stroke="black" points="2087.82,-84.8 1894.18,-84.8 1894.18,-48.8 2087.82,-48.8 2087.82,-84.8"/>
<text text-anchor="middle" x="1991" y="-62.6" font-family="Times,serif" font-size="14.00">SignupconfirmationComponent</text>
</g>
<!-- SignupconfirmationComponent&#45;&gt;AppModule -->
<g id="edge44" class="edge">
<title>SignupconfirmationComponent&#45;&gt;AppModule</title>
<path fill="none" stroke="black" d="M1991,-84.83C1991,-105.57 1991,-136.8 1991,-136.8 1991,-136.8 5360.29,-136.8 5360.29,-136.8"/>
<polygon fill="black" stroke="black" points="5360.29,-140.3 5370.29,-136.8 5360.29,-133.3 5360.29,-140.3"/>
</g>
<!-- SystemVideoComponent -->
<g id="node45" class="node">
<title>SystemVideoComponent</title>
<polygon fill="#ffffb3" stroke="black" points="1876.27,-84.8 1719.73,-84.8 1719.73,-48.8 1876.27,-48.8 1876.27,-84.8"/>
<text text-anchor="middle" x="1798" y="-62.6" font-family="Times,serif" font-size="14.00">SystemVideoComponent</text>
</g>
<!-- SystemVideoComponent&#45;&gt;AppModule -->
<g id="edge45" class="edge">
<title>SystemVideoComponent&#45;&gt;AppModule</title>
<path fill="none" stroke="black" d="M1798,-85.08C1798,-106.12 1798,-137.8 1798,-137.8 1798,-137.8 5360.16,-137.8 5360.16,-137.8"/>
<polygon fill="black" stroke="black" points="5360.16,-141.3 5370.16,-137.8 5360.16,-134.3 5360.16,-141.3"/>
</g>
<!-- TestAndOtherDocumentsComponent -->
<g id="node46" class="node">
<title>TestAndOtherDocumentsComponent</title>
<polygon fill="#ffffb3" stroke="black" points="1701.68,-84.8 1476.32,-84.8 1476.32,-48.8 1701.68,-48.8 1701.68,-84.8"/>
<text text-anchor="middle" x="1589" y="-62.6" font-family="Times,serif" font-size="14.00">TestAndOtherDocumentsComponent</text>
</g>
<!-- TestAndOtherDocumentsComponent&#45;&gt;AppModule -->
<g id="edge46" class="edge">
<title>TestAndOtherDocumentsComponent&#45;&gt;AppModule</title>
<path fill="none" stroke="black" d="M1589,-84.84C1589,-106.46 1589,-139.8 1589,-139.8 1589,-139.8 5360.04,-139.8 5360.04,-139.8"/>
<polygon fill="black" stroke="black" points="5360.04,-143.3 5370.04,-139.8 5360.04,-136.3 5360.04,-143.3"/>
</g>
<!-- UserDashboardComponent -->
<g id="node47" class="node">
<title>UserDashboardComponent</title>
<polygon fill="#ffffb3" stroke="black" points="1458.4,-84.8 1289.6,-84.8 1289.6,-48.8 1458.4,-48.8 1458.4,-84.8"/>
<text text-anchor="middle" x="1374" y="-62.6" font-family="Times,serif" font-size="14.00">UserDashboardComponent</text>
</g>
<!-- UserDashboardComponent&#45;&gt;AppModule -->
<g id="edge47" class="edge">
<title>UserDashboardComponent&#45;&gt;AppModule</title>
<path fill="none" stroke="black" d="M1374,-85.09C1374,-107.01 1374,-140.8 1374,-140.8 1374,-140.8 5360.05,-140.8 5360.05,-140.8"/>
<polygon fill="black" stroke="black" points="5360.05,-144.3 5370.05,-140.8 5360.05,-137.3 5360.05,-144.3"/>
</g>
<!-- UserEducationComponent -->
<g id="node48" class="node">
<title>UserEducationComponent</title>
<polygon fill="#ffffb3" stroke="black" points="1272.02,-84.8 1107.98,-84.8 1107.98,-48.8 1272.02,-48.8 1272.02,-84.8"/>
<text text-anchor="middle" x="1190" y="-62.6" font-family="Times,serif" font-size="14.00">UserEducationComponent</text>
</g>
<!-- UserEducationComponent&#45;&gt;AppModule -->
<g id="edge48" class="edge">
<title>UserEducationComponent&#45;&gt;AppModule</title>
<path fill="none" stroke="black" d="M1190,-84.96C1190,-107.15 1190,-141.8 1190,-141.8 1190,-141.8 5360.21,-141.8 5360.21,-141.8"/>
<polygon fill="black" stroke="black" points="5360.21,-145.3 5370.21,-141.8 5360.21,-138.3 5360.21,-145.3"/>
</g>
<!-- UserMenuComponent -->
<g id="node49" class="node">
<title>UserMenuComponent</title>
<polygon fill="#ffffb3" stroke="black" points="1090.42,-84.8 949.58,-84.8 949.58,-48.8 1090.42,-48.8 1090.42,-84.8"/>
<text text-anchor="middle" x="1020" y="-62.6" font-family="Times,serif" font-size="14.00">UserMenuComponent</text>
</g>
<!-- UserMenuComponent&#45;&gt;AppModule -->
<g id="edge49" class="edge">
<title>UserMenuComponent&#45;&gt;AppModule</title>
<path fill="none" stroke="black" d="M1020,-84.81C1020,-107.29 1020,-142.8 1020,-142.8 1020,-142.8 5360.29,-142.8 5360.29,-142.8"/>
<polygon fill="black" stroke="black" points="5360.29,-146.3 5370.29,-142.8 5360.29,-139.3 5360.29,-146.3"/>
</g>
<!-- UserNamePhotoComponent -->
<g id="node50" class="node">
<title>UserNamePhotoComponent</title>
<polygon fill="#ffffb3" stroke="black" points="931.86,-84.8 758.14,-84.8 758.14,-48.8 931.86,-48.8 931.86,-84.8"/>
<text text-anchor="middle" x="845" y="-62.6" font-family="Times,serif" font-size="14.00">UserNamePhotoComponent</text>
</g>
<!-- UserNamePhotoComponent&#45;&gt;AppModule -->
<g id="edge50" class="edge">
<title>UserNamePhotoComponent&#45;&gt;AppModule</title>
<path fill="none" stroke="black" d="M845,-85.05C845,-107.82 845,-143.8 845,-143.8 845,-143.8 5360.06,-143.8 5360.06,-143.8"/>
<polygon fill="black" stroke="black" points="5360.06,-147.3 5370.06,-143.8 5360.06,-140.3 5360.06,-147.3"/>
</g>
<!-- UserPersonalInfoComponent -->
<g id="node51" class="node">
<title>UserPersonalInfoComponent</title>
<polygon fill="#ffffb3" stroke="black" points="739.79,-84.8 560.21,-84.8 560.21,-48.8 739.79,-48.8 739.79,-84.8"/>
<text text-anchor="middle" x="650" y="-62.6" font-family="Times,serif" font-size="14.00">UserPersonalInfoComponent</text>
</g>
<!-- UserPersonalInfoComponent&#45;&gt;AppModule -->
<g id="edge51" class="edge">
<title>UserPersonalInfoComponent&#45;&gt;AppModule</title>
<path fill="none" stroke="black" d="M650,-85.12C650,-108.46 650,-145.8 650,-145.8 650,-145.8 5360.11,-145.8 5360.11,-145.8"/>
<polygon fill="black" stroke="black" points="5360.11,-149.3 5370.11,-145.8 5360.11,-142.3 5360.11,-149.3"/>
</g>
<!-- UserProfileComponent -->
<g id="node52" class="node">
<title>UserProfileComponent</title>
<polygon fill="#ffffb3" stroke="black" points="541.86,-84.8 396.14,-84.8 396.14,-48.8 541.86,-48.8 541.86,-84.8"/>
<text text-anchor="middle" x="469" y="-62.6" font-family="Times,serif" font-size="14.00">UserProfileComponent</text>
</g>
<!-- UserProfileComponent&#45;&gt;AppModule -->
<g id="edge52" class="edge">
<title>UserProfileComponent&#45;&gt;AppModule</title>
<path fill="none" stroke="black" d="M469,-84.95C469,-108.56 469,-146.8 469,-146.8 469,-146.8 5360.01,-146.8 5360.01,-146.8"/>
<polygon fill="black" stroke="black" points="5360.01,-150.3 5370.01,-146.8 5360.01,-143.3 5360.01,-150.3"/>
</g>
<!-- UserSkillComponent -->
<g id="node53" class="node">
<title>UserSkillComponent</title>
<polygon fill="#ffffb3" stroke="black" points="378.21,-84.8 243.79,-84.8 243.79,-48.8 378.21,-48.8 378.21,-84.8"/>
<text text-anchor="middle" x="311" y="-62.6" font-family="Times,serif" font-size="14.00">UserSkillComponent</text>
</g>
<!-- UserSkillComponent&#45;&gt;AppModule -->
<g id="edge53" class="edge">
<title>UserSkillComponent&#45;&gt;AppModule</title>
<path fill="none" stroke="black" d="M311,-85.18C311,-109.08 311,-147.8 311,-147.8 311,-147.8 5360.19,-147.8 5360.19,-147.8"/>
<polygon fill="black" stroke="black" points="5360.19,-151.3 5370.19,-147.8 5360.19,-144.3 5360.19,-151.3"/>
</g>
<!-- UserWorkExperienceComponent -->
<g id="node54" class="node">
<title>UserWorkExperienceComponent</title>
<polygon fill="#ffffb3" stroke="black" points="226.1,-84.8 23.9,-84.8 23.9,-48.8 226.1,-48.8 226.1,-84.8"/>
<text text-anchor="middle" x="125" y="-62.6" font-family="Times,serif" font-size="14.00">UserWorkExperienceComponent</text>
</g>
<!-- UserWorkExperienceComponent&#45;&gt;AppModule -->
<g id="edge54" class="edge">
<title>UserWorkExperienceComponent&#45;&gt;AppModule</title>
<path fill="none" stroke="black" d="M125,-85C125,-109.16 125,-148.8 125,-148.8 125,-148.8 5360.21,-148.8 5360.21,-148.8"/>
<polygon fill="black" stroke="black" points="5360.21,-152.3 5370.21,-148.8 5360.21,-145.3 5360.21,-152.3"/>
</g>
<!-- AppComponent  -->
<g id="node58" class="node">
<title>AppComponent </title>
<polygon fill="#80b1d3" stroke="black" points="5466.44,-214.8 5357.56,-214.8 5357.56,-178.8 5466.44,-178.8 5466.44,-214.8"/>
<text text-anchor="middle" x="5412" y="-192.6" font-family="Times,serif" font-size="14.00">AppComponent </text>
</g>
<!-- AppModule&#45;&gt;AppComponent  -->
<g id="edge57" class="edge">
<title>AppModule&#45;&gt;AppComponent </title>
<path fill="none" stroke="black" stroke-dasharray="1,5" d="M5412,-149.91C5412,-149.91 5412,-168.79 5412,-168.79"/>
<polygon fill="black" stroke="black" points="5408.5,-168.79 5412,-178.79 5415.5,-168.79 5408.5,-168.79"/>
</g>
<!-- AppRoutingModule -->
<g id="node56" class="node">
<title>AppRoutingModule</title>
<polygon fill="#8dd3c7" stroke="black" points="10068.27,-84.8 10065.27,-88.8 10044.27,-88.8 10041.27,-84.8 9939.73,-84.8 9939.73,-48.8 10068.27,-48.8 10068.27,-84.8"/>
<text text-anchor="middle" x="10004" y="-62.6" font-family="Times,serif" font-size="14.00">AppRoutingModule</text>
</g>
<!-- AppRoutingModule&#45;&gt;AppModule -->
<g id="edge55" class="edge">
<title>AppRoutingModule&#45;&gt;AppModule</title>
<path fill="none" stroke="black" d="M10004,-85.12C10004,-108.46 10004,-145.8 10004,-145.8 10004,-145.8 5463.81,-145.8 5463.81,-145.8"/>
<polygon fill="black" stroke="black" points="5463.81,-142.3 5453.81,-145.8 5463.81,-149.3 5463.81,-142.3"/>
</g>
<!-- MaterialModule -->
<g id="node57" class="node">
<title>MaterialModule</title>
<polygon fill="#8dd3c7" stroke="black" points="9921.47,-84.8 9918.47,-88.8 9897.47,-88.8 9894.47,-84.8 9814.53,-84.8 9814.53,-48.8 9921.47,-48.8 9921.47,-84.8"/>
<text text-anchor="middle" x="9868" y="-62.6" font-family="Times,serif" font-size="14.00">MaterialModule</text>
</g>
<!-- MaterialModule&#45;&gt;AppModule -->
<g id="edge56" class="edge">
<title>MaterialModule&#45;&gt;AppModule</title>
<path fill="none" stroke="black" d="M9868,-85.05C9868,-107.82 9868,-143.8 9868,-143.8 9868,-143.8 5463.97,-143.8 5463.97,-143.8"/>
<polygon fill="black" stroke="black" points="5463.97,-140.3 5453.97,-143.8 5463.97,-147.3 5463.97,-140.3"/>
</g>
<!-- ErrordialogService -->
<g id="node59" class="node">
<title>ErrordialogService</title>
<ellipse fill="#fdb462" stroke="black" cx="10577" cy="-66.8" rx="84.51" ry="18"/>
<text text-anchor="middle" x="10577" y="-62.6" font-family="Times,serif" font-size="14.00">ErrordialogService</text>
</g>
<!-- ErrordialogService&#45;&gt;AppModule -->
<g id="edge58" class="edge">
<title>ErrordialogService&#45;&gt;AppModule</title>
<path fill="none" stroke="black" d="M10577,-85C10577,-109.16 10577,-148.8 10577,-148.8 10577,-148.8 5463.95,-148.8 5463.95,-148.8"/>
<polygon fill="black" stroke="black" points="5463.95,-145.3 5453.95,-148.8 5463.95,-152.3 5463.95,-145.3"/>
</g>
<!-- HttpConfigInterceptor -->
<g id="node60" class="node">
<title>HttpConfigInterceptor</title>
<ellipse fill="#fdb462" stroke="black" cx="10377" cy="-66.8" rx="97.27" ry="18"/>
<text text-anchor="middle" x="10377" y="-62.6" font-family="Times,serif" font-size="14.00">HttpConfigInterceptor</text>
</g>
<!-- HttpConfigInterceptor&#45;&gt;AppModule -->
<g id="edge59" class="edge">
<title>HttpConfigInterceptor&#45;&gt;AppModule</title>
<path fill="none" stroke="black" d="M10377,-85.18C10377,-109.08 10377,-147.8 10377,-147.8 10377,-147.8 5463.8,-147.8 5463.8,-147.8"/>
<polygon fill="black" stroke="black" points="5463.8,-144.3 5453.8,-147.8 5463.8,-151.3 5463.8,-144.3"/>
</g>
<!-- UserProfileService -->
<g id="node61" class="node">
<title>UserProfileService</title>
<ellipse fill="#fdb462" stroke="black" cx="10177" cy="-66.8" rx="84.5" ry="18"/>
<text text-anchor="middle" x="10177" y="-62.6" font-family="Times,serif" font-size="14.00">UserProfileService</text>
</g>
<!-- UserProfileService&#45;&gt;AppModule -->
<g id="edge60" class="edge">
<title>UserProfileService&#45;&gt;AppModule</title>
<path fill="none" stroke="black" d="M10177,-84.95C10177,-108.56 10177,-146.8 10177,-146.8 10177,-146.8 5463.92,-146.8 5463.92,-146.8"/>
<polygon fill="black" stroke="black" points="5463.92,-143.3 5453.92,-146.8 5463.92,-150.3 5463.92,-143.3"/>
</g>
</g>
</svg>
