<?xml version="1.0" encoding="UTF-8" standalone="no"?>
<!DOCTYPE svg PUBLIC "-//W3C//DTD SVG 1.1//EN"
 "http://www.w3.org/Graphics/SVG/1.1/DTD/svg11.dtd">
<!-- Generated by graphviz version 2.47.3 (20210619.1520)
 -->
<!-- Title: dependencies Pages: 1 -->
<svg width="2241pt" height="247pt"
 viewBox="0.00 0.00 2241.00 246.80" xmlns="http://www.w3.org/2000/svg" xmlns:xlink="http://www.w3.org/1999/xlink">
<g id="graph0" class="graph" transform="scale(1 1) rotate(0) translate(4 242.8)">
<title>dependencies</title>
<polygon fill="white" stroke="transparent" points="-4,4 -4,-242.8 2237,-242.8 2237,4 -4,4"/>
<text text-anchor="middle" x="1116.5" y="-8.2" font-family="sans-serif" font-size="14.00">dependencies</text>
<g id="clust1" class="cluster">
<title>cluster_MaterialModule</title>
<polygon fill="none" stroke="black" stroke-dasharray="1,5" points="8,-32.8 8,-230.8 2225,-230.8 2225,-32.8 8,-32.8"/>
</g>
<g id="clust4" class="cluster">
<title>cluster_MaterialModule_exports</title>
<polygon fill="none" stroke="black" points="16,-170.8 16,-222.8 2217,-222.8 2217,-170.8 16,-170.8"/>
</g>
<g id="clust3" class="cluster">
<title>cluster_MaterialModule_imports</title>
<polygon fill="none" stroke="black" points="42,-40.8 42,-92.8 2189,-92.8 2189,-40.8 42,-40.8"/>
</g>
<!-- MatSelectModule -->
<g id="node1" class="node">
<title>MatSelectModule</title>
<polygon fill="#8dd3c7" stroke="black" points="2181.31,-84.8 2178.31,-88.8 2157.31,-88.8 2154.31,-84.8 2064.69,-84.8 2064.69,-48.8 2181.31,-48.8 2181.31,-84.8"/>
<text text-anchor="middle" x="2123" y="-62.6" font-family="Times,serif" font-size="14.00">MatSelectModule</text>
</g>
<!-- MaterialModule -->
<g id="node16" class="node">
<title>MaterialModule</title>
<polygon fill="#8dd3c7" stroke="black" points="1217.47,-149.8 1214.47,-153.8 1193.47,-153.8 1190.47,-149.8 1110.53,-149.8 1110.53,-113.8 1217.47,-113.8 1217.47,-149.8"/>
<text text-anchor="middle" x="1164" y="-127.6" font-family="Times,serif" font-size="14.00">MaterialModule</text>
</g>
<!-- MatSelectModule&#45;&gt;MaterialModule -->
<g id="edge1" class="edge">
<title>MatSelectModule&#45;&gt;MaterialModule</title>
<path fill="none" stroke="black" d="M2079.97,-84.97C2079.97,-103.89 2079.97,-130.8 2079.97,-130.8 2079.97,-130.8 1227.54,-130.8 1227.54,-130.8"/>
<polygon fill="black" stroke="black" points="1227.54,-127.3 1217.54,-130.8 1227.54,-134.3 1227.54,-127.3"/>
</g>
<!-- MatDialogModule -->
<g id="node2" class="node">
<title>MatDialogModule</title>
<polygon fill="#8dd3c7" stroke="black" points="2047.2,-84.8 2044.2,-88.8 2023.2,-88.8 2020.2,-84.8 1926.8,-84.8 1926.8,-48.8 2047.2,-48.8 2047.2,-84.8"/>
<text text-anchor="middle" x="1987" y="-62.6" font-family="Times,serif" font-size="14.00">MatDialogModule</text>
</g>
<!-- MatDialogModule&#45;&gt;MaterialModule -->
<g id="edge2" class="edge">
<title>MatDialogModule&#45;&gt;MaterialModule</title>
<path fill="none" stroke="black" d="M1938.36,-85.07C1938.36,-103.36 1938.36,-128.8 1938.36,-128.8 1938.36,-128.8 1227.53,-128.8 1227.53,-128.8"/>
<polygon fill="black" stroke="black" points="1227.53,-125.3 1217.53,-128.8 1227.53,-132.3 1227.53,-125.3"/>
</g>
<!-- MatInputModule -->
<g id="node3" class="node">
<title>MatInputModule</title>
<polygon fill="#8dd3c7" stroke="black" points="1908.65,-84.8 1905.65,-88.8 1884.65,-88.8 1881.65,-84.8 1797.35,-84.8 1797.35,-48.8 1908.65,-48.8 1908.65,-84.8"/>
<text text-anchor="middle" x="1853" y="-62.6" font-family="Times,serif" font-size="14.00">MatInputModule</text>
</g>
<!-- MatInputModule&#45;&gt;MaterialModule -->
<g id="edge3" class="edge">
<title>MatInputModule&#45;&gt;MaterialModule</title>
<path fill="none" stroke="black" d="M1805.8,-84.82C1805.8,-102.17 1805.8,-125.8 1805.8,-125.8 1805.8,-125.8 1227.62,-125.8 1227.62,-125.8"/>
<polygon fill="black" stroke="black" points="1227.62,-122.3 1217.62,-125.8 1227.62,-129.3 1227.62,-122.3"/>
</g>
<!-- MatFormFieldModule -->
<g id="node4" class="node">
<title>MatFormFieldModule</title>
<polygon fill="#8dd3c7" stroke="black" points="1779.71,-84.8 1776.71,-88.8 1755.71,-88.8 1752.71,-84.8 1638.29,-84.8 1638.29,-48.8 1779.71,-48.8 1779.71,-84.8"/>
<text text-anchor="middle" x="1709" y="-62.6" font-family="Times,serif" font-size="14.00">MatFormFieldModule</text>
</g>
<!-- MatFormFieldModule&#45;&gt;MaterialModule -->
<g id="edge4" class="edge">
<title>MatFormFieldModule&#45;&gt;MaterialModule</title>
<path fill="none" stroke="black" d="M1645.02,-84.84C1645.02,-101.53 1645.02,-123.8 1645.02,-123.8 1645.02,-123.8 1227.78,-123.8 1227.78,-123.8"/>
<polygon fill="black" stroke="black" points="1227.78,-120.3 1217.78,-123.8 1227.78,-127.3 1227.78,-120.3"/>
</g>
<!-- MatRadioModule -->
<g id="node5" class="node">
<title>MatRadioModule</title>
<polygon fill="#8dd3c7" stroke="black" points="1620.54,-84.8 1617.54,-88.8 1596.54,-88.8 1593.54,-84.8 1505.46,-84.8 1505.46,-48.8 1620.54,-48.8 1620.54,-84.8"/>
<text text-anchor="middle" x="1563" y="-62.6" font-family="Times,serif" font-size="14.00">MatRadioModule</text>
</g>
<!-- MatRadioModule&#45;&gt;MaterialModule -->
<g id="edge5" class="edge">
<title>MatRadioModule&#45;&gt;MaterialModule</title>
<path fill="none" stroke="black" d="M1509.85,-84.81C1509.85,-100.85 1509.85,-121.8 1509.85,-121.8 1509.85,-121.8 1227.66,-121.8 1227.66,-121.8"/>
<polygon fill="black" stroke="black" points="1227.66,-118.3 1217.66,-121.8 1227.66,-125.3 1227.66,-118.3"/>
</g>
<!-- MatButtonModule -->
<g id="node6" class="node">
<title>MatButtonModule</title>
<polygon fill="#8dd3c7" stroke="black" points="1487.22,-84.8 1484.22,-88.8 1463.22,-88.8 1460.22,-84.8 1366.78,-84.8 1366.78,-48.8 1487.22,-48.8 1487.22,-84.8"/>
<text text-anchor="middle" x="1427" y="-62.6" font-family="Times,serif" font-size="14.00">MatButtonModule</text>
</g>
<!-- MatButtonModule&#45;&gt;MaterialModule -->
<g id="edge6" class="edge">
<title>MatButtonModule&#45;&gt;MaterialModule</title>
<path fill="none" stroke="black" d="M1449.12,-84.99C1449.12,-99.98 1449.12,-118.8 1449.12,-118.8 1449.12,-118.8 1227.63,-118.8 1227.63,-118.8"/>
<polygon fill="black" stroke="black" points="1227.63,-115.3 1217.63,-118.8 1227.63,-122.3 1227.63,-115.3"/>
</g>
<!-- MatTableModule -->
<g id="node7" class="node">
<title>MatTableModule</title>
<polygon fill="#8dd3c7" stroke="black" points="1348.97,-84.8 1345.97,-88.8 1324.97,-88.8 1321.97,-84.8 1235.03,-84.8 1235.03,-48.8 1348.97,-48.8 1348.97,-84.8"/>
<text text-anchor="middle" x="1292" y="-62.6" font-family="Times,serif" font-size="14.00">MatTableModule</text>
</g>
<!-- MatTableModule&#45;&gt;MaterialModule -->
<g id="edge7" class="edge">
<title>MatTableModule&#45;&gt;MaterialModule</title>
<path fill="none" stroke="black" d="M1311.75,-84.85C1311.75,-99.17 1311.75,-116.8 1311.75,-116.8 1311.75,-116.8 1227.76,-116.8 1227.76,-116.8"/>
<polygon fill="black" stroke="black" points="1227.76,-113.3 1217.76,-116.8 1227.76,-120.3 1227.76,-113.3"/>
</g>
<!-- MatIconModule -->
<g id="node8" class="node">
<title>MatIconModule</title>
<polygon fill="#8dd3c7" stroke="black" points="1217.47,-84.8 1214.47,-88.8 1193.47,-88.8 1190.47,-84.8 1110.53,-84.8 1110.53,-48.8 1217.47,-48.8 1217.47,-84.8"/>
<text text-anchor="middle" x="1164" y="-62.6" font-family="Times,serif" font-size="14.00">MatIconModule</text>
</g>
<!-- MatIconModule&#45;&gt;MaterialModule -->
<g id="edge8" class="edge">
<title>MatIconModule&#45;&gt;MaterialModule</title>
<path fill="none" stroke="black" d="M1164,-84.91C1164,-84.91 1164,-103.79 1164,-103.79"/>
<polygon fill="black" stroke="black" points="1160.5,-103.79 1164,-113.79 1167.5,-103.79 1160.5,-103.79"/>
</g>
<!-- MatPaginatorModule -->
<g id="node9" class="node">
<title>MatPaginatorModule</title>
<polygon fill="#8dd3c7" stroke="black" points="1092.75,-84.8 1089.75,-88.8 1068.75,-88.8 1065.75,-84.8 957.25,-84.8 957.25,-48.8 1092.75,-48.8 1092.75,-84.8"/>
<text text-anchor="middle" x="1025" y="-62.6" font-family="Times,serif" font-size="14.00">MatPaginatorModule</text>
</g>
<!-- MatPaginatorModule&#45;&gt;MaterialModule -->
<g id="edge9" class="edge">
<title>MatPaginatorModule&#45;&gt;MaterialModule</title>
<path fill="none" stroke="black" d="M1046.13,-84.85C1046.13,-99.17 1046.13,-116.8 1046.13,-116.8 1046.13,-116.8 1100.24,-116.8 1100.24,-116.8"/>
<polygon fill="black" stroke="black" points="1100.24,-120.3 1110.24,-116.8 1100.24,-113.3 1100.24,-120.3"/>
</g>
<!-- MatCardModule -->
<g id="node10" class="node">
<title>MatCardModule</title>
<polygon fill="#8dd3c7" stroke="black" points="938.81,-84.8 935.81,-88.8 914.81,-88.8 911.81,-84.8 829.19,-84.8 829.19,-48.8 938.81,-48.8 938.81,-84.8"/>
<text text-anchor="middle" x="884" y="-62.6" font-family="Times,serif" font-size="14.00">MatCardModule</text>
</g>
<!-- MatCardModule&#45;&gt;MaterialModule -->
<g id="edge10" class="edge">
<title>MatCardModule&#45;&gt;MaterialModule</title>
<path fill="none" stroke="black" d="M898.72,-84.99C898.72,-99.98 898.72,-118.8 898.72,-118.8 898.72,-118.8 1100.32,-118.8 1100.32,-118.8"/>
<polygon fill="black" stroke="black" points="1100.32,-122.3 1110.32,-118.8 1100.32,-115.3 1100.32,-122.3"/>
</g>
<!-- MatDatepickerModule -->
<g id="node11" class="node">
<title>MatDatepickerModule</title>
<polygon fill="#8dd3c7" stroke="black" points="811.51,-84.8 808.51,-88.8 787.51,-88.8 784.51,-84.8 668.49,-84.8 668.49,-48.8 811.51,-48.8 811.51,-84.8"/>
<text text-anchor="middle" x="740" y="-62.6" font-family="Times,serif" font-size="14.00">MatDatepickerModule</text>
</g>
<!-- MatDatepickerModule&#45;&gt;MaterialModule -->
<g id="edge11" class="edge">
<title>MatDatepickerModule&#45;&gt;MaterialModule</title>
<path fill="none" stroke="black" d="M807.13,-84.81C807.13,-100.85 807.13,-121.8 807.13,-121.8 807.13,-121.8 1100.19,-121.8 1100.19,-121.8"/>
<polygon fill="black" stroke="black" points="1100.19,-125.3 1110.19,-121.8 1100.19,-118.3 1100.19,-125.3"/>
</g>
<!-- MatNativeDateModule -->
<g id="node12" class="node">
<title>MatNativeDateModule</title>
<polygon fill="#8dd3c7" stroke="black" points="649.84,-84.8 646.84,-88.8 625.84,-88.8 622.84,-84.8 504.16,-84.8 504.16,-48.8 649.84,-48.8 649.84,-84.8"/>
<text text-anchor="middle" x="577" y="-62.6" font-family="Times,serif" font-size="14.00">MatNativeDateModule</text>
</g>
<!-- MatNativeDateModule&#45;&gt;MaterialModule -->
<g id="edge12" class="edge">
<title>MatNativeDateModule&#45;&gt;MaterialModule</title>
<path fill="none" stroke="black" d="M643.8,-84.84C643.8,-101.53 643.8,-123.8 643.8,-123.8 643.8,-123.8 1100.29,-123.8 1100.29,-123.8"/>
<polygon fill="black" stroke="black" points="1100.29,-127.3 1110.29,-123.8 1100.29,-120.3 1100.29,-127.3"/>
</g>
<!-- MatDividerModule -->
<g id="node13" class="node">
<title>MatDividerModule</title>
<polygon fill="#8dd3c7" stroke="black" points="486.36,-84.8 483.36,-88.8 462.36,-88.8 459.36,-84.8 361.64,-84.8 361.64,-48.8 486.36,-48.8 486.36,-84.8"/>
<text text-anchor="middle" x="424" y="-62.6" font-family="Times,serif" font-size="14.00">MatDividerModule</text>
</g>
<!-- MatDividerModule&#45;&gt;MaterialModule -->
<g id="edge13" class="edge">
<title>MatDividerModule&#45;&gt;MaterialModule</title>
<path fill="none" stroke="black" d="M478.31,-84.82C478.31,-102.17 478.31,-125.8 478.31,-125.8 478.31,-125.8 1100.48,-125.8 1100.48,-125.8"/>
<polygon fill="black" stroke="black" points="1100.48,-129.3 1110.48,-125.8 1100.48,-122.3 1100.48,-129.3"/>
</g>
<!-- MatSnackBarModule -->
<g id="node14" class="node">
<title>MatSnackBarModule</title>
<polygon fill="#8dd3c7" stroke="black" points="343.02,-84.8 340.02,-88.8 319.02,-88.8 316.02,-84.8 206.98,-84.8 206.98,-48.8 343.02,-48.8 343.02,-84.8"/>
<text text-anchor="middle" x="275" y="-62.6" font-family="Times,serif" font-size="14.00">MatSnackBarModule</text>
</g>
<!-- MatSnackBarModule&#45;&gt;MaterialModule -->
<g id="edge14" class="edge">
<title>MatSnackBarModule&#45;&gt;MaterialModule</title>
<path fill="none" stroke="black" d="M332.92,-85.07C332.92,-103.36 332.92,-128.8 332.92,-128.8 332.92,-128.8 1100.43,-128.8 1100.43,-128.8"/>
<polygon fill="black" stroke="black" points="1100.43,-132.3 1110.43,-128.8 1100.43,-125.3 1100.43,-132.3"/>
</g>
<!-- MatCheckboxModule -->
<g id="node15" class="node">
<title>MatCheckboxModule</title>
<polygon fill="#8dd3c7" stroke="black" points="188.37,-84.8 185.37,-88.8 164.37,-88.8 161.37,-84.8 49.63,-84.8 49.63,-48.8 188.37,-48.8 188.37,-84.8"/>
<text text-anchor="middle" x="119" y="-62.6" font-family="Times,serif" font-size="14.00">MatCheckboxModule</text>
</g>
<!-- MatCheckboxModule&#45;&gt;MaterialModule -->
<g id="edge15" class="edge">
<title>MatCheckboxModule&#45;&gt;MaterialModule</title>
<path fill="none" stroke="black" d="M175.09,-84.97C175.09,-103.89 175.09,-130.8 175.09,-130.8 175.09,-130.8 1100.48,-130.8 1100.48,-130.8"/>
<polygon fill="black" stroke="black" points="1100.48,-134.3 1110.48,-130.8 1100.48,-127.3 1100.48,-134.3"/>
</g>
<!-- MatSelectModule  -->
<g id="node17" class="node">
<title>MatSelectModule </title>
<polygon fill="#fb8072" stroke="black" points="2208.81,-214.8 2089.19,-214.8 2089.19,-178.8 2208.81,-178.8 2208.81,-214.8"/>
<text text-anchor="middle" x="2149" y="-192.6" font-family="Times,serif" font-size="14.00">MatSelectModule </text>
</g>
<!-- MaterialModule&#45;&gt;MatSelectModule  -->
<g id="edge16" class="edge">
<title>MaterialModule&#45;&gt;MatSelectModule </title>
<path fill="none" stroke="black" stroke-dasharray="5,2" d="M1217.6,-133.8C1421.18,-133.8 2135.12,-133.8 2135.12,-133.8 2135.12,-133.8 2135.12,-168.58 2135.12,-168.58"/>
<polygon fill="black" stroke="black" points="2131.63,-168.58 2135.12,-178.58 2138.63,-168.58 2131.63,-168.58"/>
</g>
<!-- MatDialogModule  -->
<g id="node18" class="node">
<title>MatDialogModule </title>
<polygon fill="#fb8072" stroke="black" points="2070.7,-214.8 1947.3,-214.8 1947.3,-178.8 2070.7,-178.8 2070.7,-214.8"/>
<text text-anchor="middle" x="2009" y="-192.6" font-family="Times,serif" font-size="14.00">MatDialogModule </text>
</g>
<!-- MaterialModule&#45;&gt;MatDialogModule  -->
<g id="edge17" class="edge">
<title>MaterialModule&#45;&gt;MatDialogModule </title>
<path fill="none" stroke="black" stroke-dasharray="5,2" d="M1217.7,-135.8C1401.95,-135.8 1997.12,-135.8 1997.12,-135.8 1997.12,-135.8 1997.12,-168.5 1997.12,-168.5"/>
<polygon fill="black" stroke="black" points="1993.63,-168.5 1997.12,-178.5 2000.63,-168.5 1993.63,-168.5"/>
</g>
<!-- MatInputModule  -->
<g id="node19" class="node">
<title>MatInputModule </title>
<polygon fill="#fb8072" stroke="black" points="1929.65,-214.8 1814.35,-214.8 1814.35,-178.8 1929.65,-178.8 1929.65,-214.8"/>
<text text-anchor="middle" x="1872" y="-192.6" font-family="Times,serif" font-size="14.00">MatInputModule </text>
</g>
<!-- MaterialModule&#45;&gt;MatInputModule  -->
<g id="edge18" class="edge">
<title>MaterialModule&#45;&gt;MatInputModule </title>
<path fill="none" stroke="black" stroke-dasharray="5,2" d="M1217.58,-137.8C1380.94,-137.8 1861.62,-137.8 1861.62,-137.8 1861.62,-137.8 1861.62,-168.78 1861.62,-168.78"/>
<polygon fill="black" stroke="black" points="1858.13,-168.78 1861.62,-178.78 1865.13,-168.78 1858.13,-168.78"/>
</g>
<!-- MatFormFieldModule  -->
<g id="node20" class="node">
<title>MatFormFieldModule </title>
<polygon fill="#fb8072" stroke="black" points="1796.21,-214.8 1651.79,-214.8 1651.79,-178.8 1796.21,-178.8 1796.21,-214.8"/>
<text text-anchor="middle" x="1724" y="-192.6" font-family="Times,serif" font-size="14.00">MatFormFieldModule </text>
</g>
<!-- MaterialModule&#45;&gt;MatFormFieldModule  -->
<g id="edge19" class="edge">
<title>MaterialModule&#45;&gt;MatFormFieldModule </title>
<path fill="none" stroke="black" stroke-dasharray="5,2" d="M1217.64,-140.8C1356.26,-140.8 1715.62,-140.8 1715.62,-140.8 1715.62,-140.8 1715.62,-168.77 1715.62,-168.77"/>
<polygon fill="black" stroke="black" points="1712.13,-168.77 1715.62,-178.77 1719.13,-168.77 1712.13,-168.77"/>
</g>
<!-- MatRadioModule  -->
<g id="node21" class="node">
<title>MatRadioModule </title>
<polygon fill="#fb8072" stroke="black" points="1633.54,-214.8 1514.46,-214.8 1514.46,-178.8 1633.54,-178.8 1633.54,-214.8"/>
<text text-anchor="middle" x="1574" y="-192.6" font-family="Times,serif" font-size="14.00">MatRadioModule </text>
</g>
<!-- MaterialModule&#45;&gt;MatRadioModule  -->
<g id="edge20" class="edge">
<title>MaterialModule&#45;&gt;MatRadioModule </title>
<path fill="none" stroke="black" stroke-dasharray="5,2" d="M1217.6,-142.8C1327.39,-142.8 1567.62,-142.8 1567.62,-142.8 1567.62,-142.8 1567.62,-168.52 1567.62,-168.52"/>
<polygon fill="black" stroke="black" points="1564.13,-168.52 1567.62,-178.52 1571.13,-168.52 1564.13,-168.52"/>
</g>
<!-- MatButtonModule  -->
<g id="node22" class="node">
<title>MatButtonModule </title>
<polygon fill="#fb8072" stroke="black" points="1496.72,-214.8 1373.28,-214.8 1373.28,-178.8 1496.72,-178.8 1496.72,-214.8"/>
<text text-anchor="middle" x="1435" y="-192.6" font-family="Times,serif" font-size="14.00">MatButtonModule </text>
</g>
<!-- MaterialModule&#45;&gt;MatButtonModule  -->
<g id="edge21" class="edge">
<title>MaterialModule&#45;&gt;MatButtonModule </title>
<path fill="none" stroke="black" stroke-dasharray="5,2" d="M1217.62,-145.8C1290.31,-145.8 1411.13,-145.8 1411.13,-145.8 1411.13,-145.8 1411.13,-168.68 1411.13,-168.68"/>
<polygon fill="black" stroke="black" points="1407.63,-168.68 1411.13,-178.68 1414.63,-168.68 1407.63,-168.68"/>
</g>
<!-- MatTableModule  -->
<g id="node23" class="node">
<title>MatTableModule </title>
<polygon fill="#fb8072" stroke="black" points="1354.97,-214.8 1237.03,-214.8 1237.03,-178.8 1354.97,-178.8 1354.97,-214.8"/>
<text text-anchor="middle" x="1296" y="-192.6" font-family="Times,serif" font-size="14.00">MatTableModule </text>
</g>
<!-- MaterialModule&#45;&gt;MatTableModule  -->
<g id="edge22" class="edge">
<title>MaterialModule&#45;&gt;MatTableModule </title>
<path fill="none" stroke="black" stroke-dasharray="5,2" d="M1217.63,-147.8C1245.79,-147.8 1274.5,-147.8 1274.5,-147.8 1274.5,-147.8 1274.5,-168.55 1274.5,-168.55"/>
<polygon fill="black" stroke="black" points="1271,-168.55 1274.5,-178.55 1278,-168.55 1271,-168.55"/>
</g>
<!-- MatIconModule  -->
<g id="node24" class="node">
<title>MatIconModule </title>
<polygon fill="#fb8072" stroke="black" points="1219.48,-214.8 1108.52,-214.8 1108.52,-178.8 1219.48,-178.8 1219.48,-214.8"/>
<text text-anchor="middle" x="1164" y="-192.6" font-family="Times,serif" font-size="14.00">MatIconModule </text>
</g>
<!-- MaterialModule&#45;&gt;MatIconModule  -->
<g id="edge23" class="edge">
<title>MaterialModule&#45;&gt;MatIconModule </title>
<path fill="none" stroke="black" stroke-dasharray="5,2" d="M1164,-149.91C1164,-149.91 1164,-168.79 1164,-168.79"/>
<polygon fill="black" stroke="black" points="1160.5,-168.79 1164,-178.79 1167.5,-168.79 1160.5,-168.79"/>
</g>
<!-- MatPaginatorModule  -->
<g id="node25" class="node">
<title>MatPaginatorModule </title>
<polygon fill="#fb8072" stroke="black" points="1090.75,-214.8 951.25,-214.8 951.25,-178.8 1090.75,-178.8 1090.75,-214.8"/>
<text text-anchor="middle" x="1021" y="-192.6" font-family="Times,serif" font-size="14.00">MatPaginatorModule </text>
</g>
<!-- MaterialModule&#45;&gt;MatPaginatorModule  -->
<g id="edge24" class="edge">
<title>MaterialModule&#45;&gt;MatPaginatorModule </title>
<path fill="none" stroke="black" stroke-dasharray="5,2" d="M1110.38,-147.8C1063.09,-147.8 1001.62,-147.8 1001.62,-147.8 1001.62,-147.8 1001.62,-168.55 1001.62,-168.55"/>
<polygon fill="black" stroke="black" points="998.12,-168.55 1001.62,-178.55 1005.12,-168.55 998.12,-168.55"/>
</g>
<!-- MatCardModule  -->
<g id="node26" class="node">
<title>MatCardModule </title>
<polygon fill="#fb8072" stroke="black" points="933.31,-214.8 820.69,-214.8 820.69,-178.8 933.31,-178.8 933.31,-214.8"/>
<text text-anchor="middle" x="877" y="-192.6" font-family="Times,serif" font-size="14.00">MatCardModule </text>
</g>
<!-- MaterialModule&#45;&gt;MatCardModule  -->
<g id="edge25" class="edge">
<title>MaterialModule&#45;&gt;MatCardModule </title>
<path fill="none" stroke="black" stroke-dasharray="5,2" d="M1110.37,-145.8C1024.09,-145.8 864.03,-145.8 864.03,-145.8 864.03,-145.8 864.03,-168.68 864.03,-168.68"/>
<polygon fill="black" stroke="black" points="860.53,-168.68 864.03,-178.68 867.53,-168.68 860.53,-168.68"/>
</g>
<!-- MatDatepickerModule  -->
<g id="node27" class="node">
<title>MatDatepickerModule </title>
<polygon fill="#fb8072" stroke="black" points="802.51,-214.8 655.49,-214.8 655.49,-178.8 802.51,-178.8 802.51,-214.8"/>
<text text-anchor="middle" x="729" y="-192.6" font-family="Times,serif" font-size="14.00">MatDatepickerModule </text>
</g>
<!-- MaterialModule&#45;&gt;MatDatepickerModule  -->
<g id="edge26" class="edge">
<title>MaterialModule&#45;&gt;MatDatepickerModule </title>
<path fill="none" stroke="black" stroke-dasharray="5,2" d="M1110.15,-142.8C995.03,-142.8 735.38,-142.8 735.38,-142.8 735.38,-142.8 735.38,-168.52 735.38,-168.52"/>
<polygon fill="black" stroke="black" points="731.88,-168.52 735.38,-178.52 738.88,-168.52 731.88,-168.52"/>
</g>
<!-- MatNativeDateModule  -->
<g id="node28" class="node">
<title>MatNativeDateModule </title>
<polygon fill="#fb8072" stroke="black" points="637.84,-214.8 488.16,-214.8 488.16,-178.8 637.84,-178.8 637.84,-214.8"/>
<text text-anchor="middle" x="563" y="-192.6" font-family="Times,serif" font-size="14.00">MatNativeDateModule </text>
</g>
<!-- MaterialModule&#45;&gt;MatNativeDateModule  -->
<g id="edge27" class="edge">
<title>MaterialModule&#45;&gt;MatNativeDateModule </title>
<path fill="none" stroke="black" stroke-dasharray="5,2" d="M1110.32,-140.8C964.31,-140.8 570.88,-140.8 570.88,-140.8 570.88,-140.8 570.88,-168.77 570.88,-168.77"/>
<polygon fill="black" stroke="black" points="567.38,-168.77 570.88,-178.77 574.38,-168.77 567.38,-168.77"/>
</g>
<!-- MatDividerModule  -->
<g id="node29" class="node">
<title>MatDividerModule </title>
<polygon fill="#fb8072" stroke="black" points="470.36,-214.8 341.64,-214.8 341.64,-178.8 470.36,-178.8 470.36,-214.8"/>
<text text-anchor="middle" x="406" y="-192.6" font-family="Times,serif" font-size="14.00">MatDividerModule </text>
</g>
<!-- MaterialModule&#45;&gt;MatDividerModule  -->
<g id="edge28" class="edge">
<title>MaterialModule&#45;&gt;MatDividerModule </title>
<path fill="none" stroke="black" stroke-dasharray="5,2" d="M1110.5,-137.8C939.27,-137.8 415.88,-137.8 415.88,-137.8 415.88,-137.8 415.88,-168.78 415.88,-168.78"/>
<polygon fill="black" stroke="black" points="412.38,-168.78 415.88,-178.78 419.38,-168.78 412.38,-168.78"/>
</g>
<!-- MatSnackBarModule  -->
<g id="node30" class="node">
<title>MatSnackBarModule </title>
<polygon fill="#fb8072" stroke="black" points="324.02,-214.8 183.98,-214.8 183.98,-178.8 324.02,-178.8 324.02,-214.8"/>
<text text-anchor="middle" x="254" y="-192.6" font-family="Times,serif" font-size="14.00">MatSnackBarModule </text>
</g>
<!-- MaterialModule&#45;&gt;MatSnackBarModule  -->
<g id="edge29" class="edge">
<title>MaterialModule&#45;&gt;MatSnackBarModule </title>
<path fill="none" stroke="black" stroke-dasharray="5,2" d="M1110.48,-135.8C917.02,-135.8 265.38,-135.8 265.38,-135.8 265.38,-135.8 265.38,-168.5 265.38,-168.5"/>
<polygon fill="black" stroke="black" points="261.88,-168.5 265.38,-178.5 268.88,-168.5 261.88,-168.5"/>
</g>
<!-- MatCheckboxModule  -->
<g id="node31" class="node">
<title>MatCheckboxModule </title>
<polygon fill="#fb8072" stroke="black" points="166.37,-214.8 23.63,-214.8 23.63,-178.8 166.37,-178.8 166.37,-214.8"/>
<text text-anchor="middle" x="95" y="-192.6" font-family="Times,serif" font-size="14.00">MatCheckboxModule </text>
</g>
<!-- MaterialModule&#45;&gt;MatCheckboxModule  -->
<g id="edge30" class="edge">
<title>MaterialModule&#45;&gt;MatCheckboxModule </title>
<path fill="none" stroke="black" stroke-dasharray="5,2" d="M1110.17,-133.8C894.96,-133.8 107.88,-133.8 107.88,-133.8 107.88,-133.8 107.88,-168.58 107.88,-168.58"/>
<polygon fill="black" stroke="black" points="104.38,-168.58 107.88,-178.58 111.38,-168.58 104.38,-168.58"/>
</g>
</g>
</svg>
